<?xml version="1.0" standalone="no"?>
<!DOCTYPE svg PUBLIC "-//W3C//DTD SVG 1.1//EN" "http://www.w3.org/Graphics/SVG/1.1/DTD/svg11.dtd" >
<svg>
<metadata>
Created by FontForge 20120731 at Sun Oct 26 23:40:47 2014
 By root
Copyright (c) 2014 by Abraham Lee
</metadata>
<defs>
<font id="gutenberg1939-brace" horiz-adv-x="0" >
  <font-face 
    font-family="gutenberg1939-brace"
    font-weight="400"
    font-stretch="normal"
    units-per-em="1000"
    panose-1="2 0 5 3 0 0 0 0 0 0"
    ascent="800"
    descent="-200"
    bbox="-256 -9572.09 100 9572.09"
    underline-thickness="50"
    underline-position="-100"
    stemh="22"
    stemv="207"
    unicode-range="U+E100-E33F"
  />
    <missing-glyph />
    <glyph glyph-name=".notdef" horiz-adv-x="500" 
d="M50 0v533h-100v-533h100zM100 50h-200v433h200v-433z" />
    <glyph glyph-name="brace0" unicode="&#xe100;" 
d="M-256 0c0 3.01172 8.24899 4.34668 18 5.52148c25 3.01075 61 5.52052 61 13.5508v207.039c0 6.776 1.744 17.978 40 21.833l127 12.799c18 1.75699 22 -2.76102 10 -4.26602l-51 -6.27399c-20.0615 -2.468 -21 -9.034 -21 -12.799v-203.525
c0 -18.5703 -95 -27.3545 -145 -30.8672c-6.944 -0.48828 -13 -1.75684 -13 -3.01172s6.056 -2.52344 13 -3.01172c50 -3.51269 145 -12.2969 145 -30.8672v-203.525c0 -3.765 0.938499 -10.331 21 -12.799l51 -6.27399c12 -1.505 8 -6.02301 -10 -4.26602l-127 12.799
c-38.256 3.854 -40 15.057 -40 21.833v207.039c0 8.0303 -36 10.5401 -61 13.5508c-9.75101 1.1748 -18 2.50976 -18 5.52148z" />
    <glyph glyph-name="brace1" unicode="&#xe101;" 
d="M-256 0c0 3.07812 8.24899 4.44238 18 5.64355c25 3.07813 61 5.64355 61 13.8525v211.63c0 6.92699 1.744 18.377 40 22.317l127 13.083c18 1.79599 22 -2.82101 10 -4.36099l-51 -6.41301c-20.0615 -2.52299 -21 -9.23399 -21 -13.082v-208.039
c0 -18.9834 -95 -27.961 -145 -31.5528c-6.944 -0.49902 -13 -1.79589 -13 -3.07812s6.056 -2.5791 13 -3.07812c50 -3.5918 145 -12.5694 145 -31.5528v-208.039c0 -3.84801 0.938499 -10.559 21 -13.082l51 -6.41301c12 -1.53998 8 -6.15698 -10 -4.36099l-127 13.083
c-38.256 3.93999 -40 15.39 -40 22.317v211.63c0 8.209 -36 10.7744 -61 13.8525c-9.75101 1.20117 -18 2.56543 -18 5.64355z" />
    <glyph glyph-name="brace2" unicode="&#xe102;" 
d="M-256 0c0 3.14551 8.24899 4.53906 18 5.7666c25 3.14453 61 5.7656 61 14.1533v216.237c0 7.077 1.744 18.777 40 22.803l127 13.368c18 1.83398 22 -2.884 10 -4.45599l-51 -6.55301c-20.0615 -2.577 -21 -9.435 -21 -13.367v-212.568
c0 -19.3955 -95 -28.5694 -145 -32.2383c-6.944 -0.50977 -13 -1.83496 -13 -3.14551s6.056 -2.63574 13 -3.14551c50 -3.66894 145 -12.8428 145 -32.2383v-212.568c0 -3.93201 0.938499 -10.79 21 -13.367l51 -6.55301c12 -1.57199 8 -6.28998 -10 -4.45599l-127 13.368
c-38.256 4.02599 -40 15.726 -40 22.803v216.237c0 8.3877 -36 11.0088 -61 14.1533c-9.75101 1.22754 -18 2.62109 -18 5.7666z" />
    <glyph glyph-name="brace3" unicode="&#xe103;" 
d="M-256 0c0 3.21289 8.24899 4.63672 18 5.88965c25 3.21191 61 5.88965 61 14.456v220.857c0 7.228 1.744 19.177 40 23.29l127 13.653c18 1.87399 22 -2.94501 10 -4.55099l-51 -6.69299c-20.0615 -2.63202 -21 -9.63699 -21 -13.653v-217.108
c0 -19.8105 -95 -29.1806 -145 -32.9277c-6.944 -0.52051 -13 -1.87402 -13 -3.21289s6.056 -2.69238 13 -3.21289c50 -3.74707 145 -13.1172 145 -32.9277v-217.108c0 -4.01602 0.938499 -11.021 21 -13.653l51 -6.69299c12 -1.60599 8 -6.42499 -10 -4.55099l-127 13.653
c-38.256 4.112 -40 16.062 -40 23.29v220.857c0 8.5664 -36 11.2441 -61 14.456c-9.75101 1.25293 -18 2.67676 -18 5.88965z" />
    <glyph glyph-name="brace4" unicode="&#xe104;" 
d="M-256 0c0 3.28027 8.24899 4.7334 18 6.0127c25 3.28027 61 6.0137 61 14.7598v225.492c0 7.38 1.744 19.58 40 23.779l127 13.939c18 1.914 22 -3.005 10 -4.646l-51 -6.83301c-20.0615 -2.68799 -21 -9.84 -21 -13.94v-221.666c0 -20.2255 -95 -29.792 -145 -33.6181
c-6.944 -0.53222 -13 -1.91406 -13 -3.28027s6.056 -2.74805 13 -3.28027c50 -3.82618 145 -13.3926 145 -33.6181v-221.666c0 -4.10001 0.938499 -11.252 21 -13.94l51 -6.83301c12 -1.64099 8 -6.56 -10 -4.646l-127 13.939c-38.256 4.198 -40 16.399 -40 23.779v225.492
c0 8.7461 -36 11.4795 -61 14.7598c-9.75101 1.2793 -18 2.73243 -18 6.0127z" />
    <glyph glyph-name="brace5" unicode="&#xe105;" 
d="M-256 0c0 3.34766 8.24899 4.83105 18 6.13672c25 3.34766 61 6.13768 61 15.0645v230.142c0 7.532 1.744 19.984 40 24.27l127 14.227c18 1.953 22 -3.069 10 -4.742l-51 -6.97501c-20.0615 -2.74298 -21 -10.042 -21 -14.227v-226.237
c0 -20.6426 -95 -30.4063 -145 -34.3115c-6.944 -0.54297 -13 -1.95313 -13 -3.34766s6.056 -2.80469 13 -3.34766c50 -3.90527 145 -13.6689 145 -34.3115v-226.237c0 -4.185 0.938499 -11.484 21 -14.227l51 -6.97501c12 -1.673 8 -6.69501 -10 -4.742l-127 14.227
c-38.256 4.28601 -40 16.738 -40 24.27v230.142c0 8.9268 -36 11.7168 -61 15.0645c-9.75101 1.30567 -18 2.78906 -18 6.13672z" />
    <glyph glyph-name="brace6" unicode="&#xe106;" 
d="M-256 0c0 3.41504 8.24899 4.92969 18 6.26172c25 3.41504 61 6.26168 61 15.3692v234.806c0 7.68399 1.744 20.388 40 24.76l127 14.516c18 1.99197 22 -3.13101 10 -4.83902l-51 -7.11499c-20.0615 -2.79901 -21 -10.246 -21 -14.515v-230.821
c0 -21.0616 -95 -31.0225 -145 -35.0079c-6.944 -0.55274 -13 -1.99219 -13 -3.41504s6.056 -2.8623 13 -3.41504c50 -3.98535 145 -13.9463 145 -35.0079v-230.821c0 -4.26901 0.938499 -11.716 21 -14.515l51 -7.11499c12 -1.70801 8 -6.83099 -10 -4.83902l-127 14.516
c-38.256 4.37198 -40 17.076 -40 24.76v234.806c0 9.1075 -36 11.9541 -61 15.3692c-9.75101 1.33203 -18 2.84668 -18 6.26172z" />
    <glyph glyph-name="brace7" unicode="&#xe107;" 
d="M-256 0c0 3.4834 8.24899 5.02734 18 6.38672c25 3.4834 61 6.38578 61 15.6748v239.484c0 7.83801 1.744 20.795 40 25.255l127 14.804c18 2.03198 22 -3.19302 10 -4.935l-51 -7.25702c-20.0615 -2.854 -21 -10.45 -21 -14.805v-235.419
c0 -21.4815 -95 -31.6406 -145 -35.7051c-6.944 -0.56445 -13 -2.03223 -13 -3.4834s6.056 -2.91895 13 -3.4834c50 -4.06445 145 -14.2236 145 -35.7051v-235.419c0 -4.35501 0.938499 -11.951 21 -14.805l51 -7.25702c12 -1.74197 8 -6.96698 -10 -4.935l-127 14.804
c-38.256 4.45999 -40 17.417 -40 25.255v239.484c0 9.289 -36 12.1914 -61 15.6748c-9.75101 1.35938 -18 2.90332 -18 6.38672z" />
    <glyph glyph-name="brace8" unicode="&#xe108;" 
d="M-256 0c0 3.55176 8.24899 5.12598 18 6.51172c25 3.55178 61 6.51078 61 15.9824v244.177c0 7.991 1.744 21.203 40 25.75l127 15.095c18 2.07101 22 -3.25598 10 -5.03299l-51 -7.39899c-20.0615 -2.91 -21 -10.654 -21 -15.094v-240.034
c0 -21.9014 -95 -32.2608 -145 -36.4043c-6.944 -0.5752 -13 -2.07227 -13 -3.55176s6.056 -2.97656 13 -3.55176c50 -4.14355 145 -14.5029 145 -36.4043v-240.034c0 -4.44 0.938499 -12.184 21 -15.094l51 -7.39899c12 -1.77701 8 -7.104 -10 -5.03299l-127 15.095
c-38.256 4.547 -40 17.759 -40 25.75v244.177c0 9.4716 -36 12.4306 -61 15.9824c-9.75101 1.38574 -18 2.95996 -18 6.51172z" />
    <glyph glyph-name="brace9" unicode="&#xe109;" 
d="M-256 0c0 3.62012 8.24899 5.22461 18 6.63672c25 3.62008 61 6.63668 61 16.291v248.885c0 8.14502 1.744 21.612 40 26.247l127 15.384c18 2.11301 22 -3.31799 10 -5.12799l-51 -7.54202c-20.0615 -2.96597 -21 -10.86 -21 -15.385v-244.662
c0 -22.3243 -95 -32.8829 -145 -37.1065c-6.944 -0.58692 -13 -2.11133 -13 -3.62012s6.056 -3.0332 13 -3.62012c50 -4.22363 145 -14.7822 145 -37.1065v-244.662c0 -4.52499 0.938499 -12.419 21 -15.385l51 -7.54202c12 -1.81 8 -7.241 -10 -5.12799l-127 15.384
c-38.256 4.63501 -40 18.102 -40 26.247v248.885c0 9.6543 -36 12.6709 -61 16.291c-9.75101 1.41211 -18 3.0166 -18 6.63672z" />
    <glyph glyph-name="brace10" unicode="&#xe10a;" 
d="M-256 0c0 3.68848 8.24899 5.32422 18 6.7627c25 3.6894 61 6.7627 61 16.5996v253.609c0 8.29999 1.744 22.021 40 26.744l127 15.678c18 2.151 22 -3.38202 10 -5.22702l-51 -7.685c-20.0615 -3.02298 -21 -11.066 -21 -15.677v-249.305
c0 -22.747 -95 -33.5068 -145 -37.8105c-6.944 -0.59766 -13 -2.15137 -13 -3.68848s6.056 -3.09082 13 -3.68848c50 -4.30371 145 -15.0635 145 -37.8105v-249.305c0 -4.61102 0.938499 -12.654 21 -15.677l51 -7.685c12 -1.845 8 -7.37802 -10 -5.22702l-127 15.678
c-38.256 4.72299 -40 18.444 -40 26.744v253.609c0 9.8369 -36 12.9102 -61 16.5996c-9.75101 1.43848 -18 3.07422 -18 6.7627z" />
    <glyph glyph-name="brace11" unicode="&#xe10b;" 
d="M-256 0c0 3.75781 8.24899 5.42383 18 6.88965c25 3.75685 61 6.88865 61 16.9091v258.346c0 8.45502 1.744 22.432 40 27.243l127 15.97c18 2.19299 22 -3.444 10 -5.323l-51 -7.82901c-20.0615 -3.07898 -21 -11.272 -21 -15.97v-253.962
c0 -23.1728 -95 -34.1328 -145 -38.5166c-6.944 -0.60937 -13 -2.19238 -13 -3.75781s6.056 -3.14844 13 -3.75781c50 -4.38379 145 -15.3438 145 -38.5166v-253.962c0 -4.698 0.938499 -12.891 21 -15.97l51 -7.82901c12 -1.879 8 -7.51599 -10 -5.323l-127 15.97
c-38.256 4.811 -40 18.788 -40 27.243v258.346c0 10.0205 -36 13.1523 -61 16.9091c-9.75101 1.46582 -18 3.13184 -18 6.88965z" />
    <glyph glyph-name="brace12" unicode="&#xe10c;" 
d="M-256 0c0 3.82715 8.24899 5.52344 18 7.01562c25 3.82718 61 7.01658 61 17.2217v263.098c0 8.61002 1.744 22.845 40 27.744l127 16.265c18 2.23199 22 -3.508 10 -5.422l-51 -7.97299c-20.0615 -3.13602 -21 -11.48 -21 -16.263v-258.633
c0 -23.5996 -95 -34.7607 -145 -39.2256c-6.944 -0.62012 -13 -2.23242 -13 -3.82715s6.056 -3.20703 13 -3.82715c50 -4.46484 145 -15.6259 145 -39.2256v-258.633c0 -4.78299 0.938499 -13.127 21 -16.263l51 -7.97299c12 -1.914 8 -7.65399 -10 -5.422l-127 16.265
c-38.256 4.89801 -40 19.134 -40 27.744v263.098c0 10.2051 -36 13.3945 -61 17.2217c-9.75101 1.49218 -18 3.18847 -18 7.01562z" />
    <glyph glyph-name="brace13" unicode="&#xe10d;" 
d="M-256 0c0 3.89648 8.24899 5.62305 18 7.14258c25 3.89652 61 7.14352 61 17.5332v267.865c0 8.76703 1.744 23.259 40 28.247l127 16.56c18 2.272 22 -3.573 10 -5.521l-51 -8.116c-20.0615 -3.19299 -21 -11.69 -21 -16.56v-263.319
c0 -24.0263 -95 -35.3906 -145 -39.9355c-6.944 -0.63183 -13 -2.27343 -13 -3.89648s6.056 -3.26465 13 -3.89648c50 -4.54493 145 -15.9092 145 -39.9355v-263.319c0 -4.87 0.938499 -13.367 21 -16.56l51 -8.116c12 -1.948 8 -7.793 -10 -5.521l-127 16.56
c-38.256 4.987 -40 19.48 -40 28.247v267.865c0 10.3897 -36 13.6367 -61 17.5332c-9.75101 1.51953 -18 3.2461 -18 7.14258z" />
    <glyph glyph-name="brace14" unicode="&#xe10e;" 
d="M-256 0c0 3.96582 8.24899 5.72363 18 7.27051c25 3.96579 61 7.27049 61 17.8457v272.648c0 8.923 1.744 23.674 40 28.752l127 16.854c18 2.314 22 -3.63599 10 -5.61798l-51 -8.26202c-20.0615 -3.25 -21 -11.897 -21 -16.854v-268.021
c0 -24.456 -95 -36.0224 -145 -40.6494c-6.944 -0.64258 -13 -2.31348 -13 -3.96582s6.056 -3.32324 13 -3.96582c50 -4.62695 145 -16.1934 145 -40.6494v-268.021c0 -4.957 0.938499 -13.604 21 -16.854l51 -8.26202c12 -1.98199 8 -7.93198 -10 -5.61798l-127 16.854
c-38.256 5.078 -40 19.829 -40 28.752v272.648c0 10.5752 -36 13.8799 -61 17.8457c-9.75101 1.54688 -18 3.30469 -18 7.27051z" />
    <glyph glyph-name="brace15" unicode="&#xe10f;" 
d="M-256 0c0 4.03516 8.24899 5.82422 18 7.39844c25 4.03516 61 7.39846 61 18.1602v277.444c0 9.08002 1.744 24.091 40 29.258l127 17.15c18 2.35498 22 -3.69901 10 -5.71701l-51 -8.40701c-20.0615 -3.30798 -21 -12.106 -21 -17.151v-272.736
c0 -24.8867 -95 -36.6563 -145 -41.3652c-6.944 -0.65332 -13 -2.35352 -13 -4.03516s6.056 -3.38184 13 -4.03516c50 -4.70898 145 -16.4785 145 -41.3652v-272.736c0 -5.04501 0.938499 -13.843 21 -17.151l51 -8.40701c12 -2.01801 8 -8.07199 -10 -5.71701l-127 17.15
c-38.256 5.16699 -40 20.178 -40 29.258v277.444c0 10.7617 -36 14.125 -61 18.1602c-9.75101 1.57422 -18 3.36328 -18 7.39844z" />
    <glyph glyph-name="brace16" unicode="&#xe110;" 
d="M-256 0c0 4.10547 8.24899 5.92578 18 7.52637c25 4.10643 61 7.52733 61 18.4756v282.256c0 9.237 1.744 24.509 40 29.765l127 17.449c18 2.39401 22 -3.76398 10 -5.81699l-51 -8.552c-20.0615 -3.366 -21 -12.318 -21 -17.45v-277.466
c0 -25.3174 -95 -37.292 -145 -42.082c-6.944 -0.66504 -13 -2.39453 -13 -4.10547s6.056 -3.44043 13 -4.10547c50 -4.79004 145 -16.7646 145 -42.082v-277.466c0 -5.13199 0.938499 -14.084 21 -17.45l51 -8.552c12 -2.05301 8 -8.211 -10 -5.81699l-127 17.449
c-38.256 5.255 -40 20.528 -40 29.765v282.256c0 10.9483 -36 14.3692 -61 18.4756c-9.75101 1.60059 -18 3.4209 -18 7.52637z" />
    <glyph glyph-name="brace17" unicode="&#xe111;" 
d="M-256 0c0 4.17578 8.24899 6.02637 18 7.65527c25 4.17583 61 7.65623 61 18.791v287.084c0 9.396 1.744 24.929 40 30.275l127 17.747c18 2.435 22 -3.828 10 -5.91602l-51 -8.69897c-20.0615 -3.422 -21 -12.528 -21 -17.748v-282.211
c0 -25.7509 -95 -37.9296 -145 -42.8017c-6.944 -0.67676 -13 -2.43555 -13 -4.17578s6.056 -3.49902 13 -4.17578c50 -4.87207 145 -17.0508 145 -42.8017v-282.211c0 -5.22 0.938499 -14.326 21 -17.748l51 -8.69897c12 -2.08801 8 -8.35101 -10 -5.91602l-127 17.747
c-38.256 5.34598 -40 20.879 -40 30.275v287.084c0 11.1348 -36 14.6152 -61 18.791c-9.75101 1.6289 -18 3.47949 -18 7.65527z" />
    <glyph glyph-name="brace18" unicode="&#xe112;" 
d="M-256 0c0 4.24609 8.24899 6.12891 18 7.78516c25 4.24604 61 7.78414 61 19.1074v291.925c0 9.55402 1.744 25.349 40 30.786l127 18.045c18 2.47803 22 -3.892 10 -6.01498l-51 -8.84601c-20.0615 -3.479 -21 -12.739 -21 -18.047v-286.971
c0 -26.1845 -95 -38.5693 -145 -43.5234c-6.944 -0.6875 -13 -2.47656 -13 -4.24609s6.056 -3.55859 13 -4.24609c50 -4.95411 145 -17.3389 145 -43.5234v-286.971c0 -5.30801 0.938499 -14.568 21 -18.047l51 -8.84601c12 -2.12299 8 -8.49301 -10 -6.01498l-127 18.045
c-38.256 5.43701 -40 21.232 -40 30.786v291.925c0 11.3233 -36 14.8614 -61 19.1074c-9.75101 1.65625 -18 3.53907 -18 7.78516z" />
    <glyph glyph-name="brace19" unicode="&#xe113;" 
d="M-256 0c0 4.31641 8.24899 6.23047 18 7.91406c25 4.31734 61 7.91404 61 19.4257v296.783c0 9.71301 1.744 25.771 40 31.297l127 18.347c18 2.51801 22 -3.957 10 -6.116l-51 -8.99301c-20.0615 -3.53799 -21 -12.951 -21 -18.346v-291.747
c0 -26.6202 -95 -39.211 -145 -44.2481c-6.944 -0.69922 -13 -2.51758 -13 -4.31641s6.056 -3.61719 13 -4.31641c50 -5.03711 145 -17.6279 145 -44.2481v-291.747c0 -5.39499 0.938499 -14.808 21 -18.346l51 -8.99301c12 -2.159 8 -8.634 -10 -6.116l-127 18.347
c-38.256 5.526 -40 21.584 -40 31.297v296.783c0 11.5117 -36 15.1084 -61 19.4257c-9.75101 1.68359 -18 3.59765 -18 7.91406z" />
    <glyph glyph-name="brace20" unicode="&#xe114;" 
d="M-256 0c0 4.3877 8.24899 6.33301 18 8.04395c25 4.38765 61 8.04395 61 19.7452v301.655c0 9.87201 1.744 26.194 40 31.811l127 18.648c18 2.56 22 -4.022 10 -6.21503l-51 -9.142c-20.0615 -3.59598 -21 -13.163 -21 -18.648v-296.537
c0 -27.0566 -95 -39.8545 -145 -44.9736c-6.944 -0.71094 -13 -2.55958 -13 -4.3877s6.056 -3.67676 13 -4.3877c50 -5.11914 145 -17.917 145 -44.9736v-296.537c0 -5.48499 0.938499 -15.052 21 -18.648l51 -9.142c12 -2.19302 8 -8.77502 -10 -6.21503l-127 18.648
c-38.256 5.616 -40 21.939 -40 31.811v301.655c0 11.7012 -36 15.3575 -61 19.7452c-9.75101 1.71094 -18 3.65625 -18 8.04395z" />
    <glyph glyph-name="brace21" unicode="&#xe115;" 
d="M-256 0c0 4.45898 8.24899 6.43555 18 8.1748c25 4.459 61 8.1738 61 20.0645v306.543c0 10.033 1.744 26.618 40 32.327l127 18.95c18 2.60101 22 -4.08701 10 -6.31699l-51 -9.289c-20.0615 -3.65399 -21 -13.376 -21 -18.95v-301.341
c0 -27.4961 -95 -40.501 -145 -45.7031c-6.944 -0.72265 -13 -2.60156 -13 -4.45898s6.056 -3.73633 13 -4.45898c50 -5.20215 145 -18.207 145 -45.7031v-301.341c0 -5.57401 0.938499 -15.296 21 -18.95l51 -9.289c12 -2.22998 8 -8.918 -10 -6.31699l-127 18.95
c-38.256 5.70801 -40 22.294 -40 32.327v306.543c0 11.8907 -36 15.6055 -61 20.0645c-9.75101 1.73925 -18 3.71582 -18 8.1748z" />
    <glyph glyph-name="brace22" unicode="&#xe116;" 
d="M-256 0c0 4.53027 8.24899 6.53809 18 8.30566c25 4.52934 61 8.30474 61 20.3847v311.448c0 10.193 1.744 27.044 40 32.843l127 19.253c18 2.64301 22 -4.15201 10 -6.418l-51 -9.43701c-20.0615 -3.71301 -21 -13.591 -21 -19.253v-306.162
c0 -27.9356 -95 -41.1485 -145 -46.4336c-6.944 -0.73437 -13 -2.64257 -13 -4.53027s6.056 -3.7959 13 -4.53027c50 -5.28516 145 -18.498 145 -46.4336v-306.162c0 -5.66199 0.938499 -15.54 21 -19.253l51 -9.43701c12 -2.26599 8 -9.061 -10 -6.418l-127 19.253
c-38.256 5.79898 -40 22.65 -40 32.843v311.448c0 12.08 -36 15.8554 -61 20.3847c-9.75101 1.76757 -18 3.77539 -18 8.30566z" />
    <glyph glyph-name="brace23" unicode="&#xe117;" 
d="M-256 0c0 4.60156 8.24899 6.6416 18 8.43652c25 4.60158 61 8.43648 61 20.7071v316.365c0 10.353 1.744 27.47 40 33.362l127 19.557c18 2.68399 22 -4.21802 10 -6.51901l-51 -9.58701c-20.0615 -3.771 -21 -13.804 -21 -19.556v-310.997
c0 -28.377 -95 -41.7979 -145 -47.167c-6.944 -0.74511 -13 -2.68457 -13 -4.60156s6.056 -3.85645 13 -4.60156c50 -5.36914 145 -18.79 145 -47.167v-310.997c0 -5.75201 0.938499 -15.785 21 -19.556l51 -9.58701c12 -2.30099 8 -9.203 -10 -6.51901l-127 19.557
c-38.256 5.89099 -40 23.009 -40 33.362v316.365c0 12.2706 -36 16.1055 -61 20.7071c-9.75101 1.79492 -18 3.83496 -18 8.43652z" />
    <glyph glyph-name="brace24" unicode="&#xe118;" 
d="M-256 0c0 4.67383 8.24899 6.74512 18 8.56836c25 4.67284 61 8.56734 61 21.0302v321.298c0 10.516 1.744 27.9 40 33.883l127 19.863c18 2.72501 22 -4.285 10 -6.62201l-51 -9.73599c-20.0615 -3.83002 -21 -14.02 -21 -19.862v-315.847
c0 -28.8194 -95 -42.4502 -145 -47.9024c-6.944 -0.75781 -13 -2.72656 -13 -4.67383s6.056 -3.91602 13 -4.67383c50 -5.45217 145 -19.083 145 -47.9024v-315.847c0 -5.84201 0.938499 -16.032 21 -19.862l51 -9.73599c12 -2.33701 8 -9.34702 -10 -6.62201l-127 19.863
c-38.256 5.98199 -40 23.367 -40 33.883v321.298c0 12.4629 -36 16.3574 -61 21.0302c-9.75101 1.82324 -18 3.89453 -18 8.56836z" />
    <glyph glyph-name="brace25" unicode="&#xe119;" 
d="M-256 0c0 4.74512 8.24899 6.84863 18 8.7002c25 4.7451 61 8.7002 61 21.3545v326.248c0 10.677 1.744 28.329 40 34.404l127 20.168c18 2.76901 22 -4.35001 10 -6.72299l-51 -9.88501c-20.0615 -3.88998 -21 -14.237 -21 -20.168v-320.713
c0 -29.2627 -95 -43.1035 -145 -48.6406c-6.944 -0.76856 -13 -2.76758 -13 -4.74512s6.056 -3.97656 13 -4.74512c50 -5.53708 145 -19.3779 145 -48.6406v-320.713c0 -5.931 0.938499 -16.278 21 -20.168l51 -9.88501c12 -2.37299 8 -9.492 -10 -6.72299l-127 20.168
c-38.256 6.07501 -40 23.727 -40 34.404v326.248c0 12.6543 -36 16.6094 -61 21.3545c-9.75101 1.85157 -18 3.95508 -18 8.7002z" />
    <glyph glyph-name="brace26" unicode="&#xe11a;" 
d="M-256 0c0 4.81738 8.24899 6.95312 18 8.83203c25 4.81837 61 8.83297 61 21.6797v331.214c0 10.838 1.744 28.759 40 34.927l127 20.475c18 2.81 22 -4.41599 10 -6.82498l-51 -10.036c-20.0615 -3.94901 -21 -14.454 -21 -20.476v-325.593
c0 -29.7089 -95 -43.7597 -145 -49.3808c-6.944 -0.78027 -13 -2.80957 -13 -4.81738s6.056 -4.03711 13 -4.81738c50 -5.62112 145 -19.6719 145 -49.3808v-325.593c0 -6.022 0.938499 -16.527 21 -20.476l51 -10.036c12 -2.409 8 -9.63498 -10 -6.82498l-127 20.475
c-38.256 6.16803 -40 24.089 -40 34.927v331.214c0 12.8467 -36 16.8613 -61 21.6797c-9.75101 1.87891 -18 4.01465 -18 8.83203z" />
    <glyph glyph-name="brace27" unicode="&#xe11b;" 
d="M-256 0c0 4.88965 8.24899 7.05762 18 8.96484c25 4.89066 61 8.96586 61 22.0059v336.194c0 11.003 1.744 29.192 40 35.453l127 20.783c18 2.853 22 -4.483 10 -6.927l-51 -10.189c-20.0615 -4.00699 -21 -14.67 -21 -20.782v-330.489
c0 -30.1553 -95 -44.419 -145 -50.1241c-6.944 -0.79199 -13 -2.85254 -13 -4.88965s6.056 -4.09766 13 -4.88965c50 -5.70505 145 -19.9688 145 -50.1241v-330.489c0 -6.112 0.938499 -16.775 21 -20.782l51 -10.189c12 -2.444 8 -9.78 -10 -6.927l-127 20.783
c-38.256 6.26102 -40 24.45 -40 35.453v336.194c0 13.04 -36 17.1152 -61 22.0059c-9.75101 1.90722 -18 4.07519 -18 8.96484z" />
    <glyph glyph-name="brace28" unicode="&#xe11c;" 
d="M-256 0c0 4.96289 8.24899 7.16309 18 9.09863c25 4.96287 61 9.09867 61 22.3321v341.19c0 11.166 1.744 29.626 40 35.98l127 21.091c18 2.89603 22 -4.54797 10 -7.03l-51 -10.339c-20.0615 -4.06699 -21 -14.888 -21 -21.092v-335.4
c0 -30.6036 -95 -45.0782 -145 -50.8682c-6.944 -0.80469 -13 -2.89551 -13 -4.96289s6.056 -4.1582 13 -4.96289c50 -5.79001 145 -20.2646 145 -50.8682v-335.4c0 -6.20401 0.938499 -17.025 21 -21.092l51 -10.339c12 -2.48203 8 -9.92603 -10 -7.03l-127 21.091
c-38.256 6.35303 -40 24.814 -40 35.98v341.19c0 13.2334 -36 17.3692 -61 22.3321c-9.75101 1.93554 -18 4.13574 -18 9.09863z" />
    <glyph glyph-name="brace29" unicode="&#xe11d;" 
d="M-256 0c0 5.03613 8.24899 7.26758 18 9.23242c25 5.03518 61 9.23148 61 22.6602v346.202c0 11.33 1.744 30.061 40 36.508l127 21.402c18 2.93698 22 -4.616 10 -7.134l-51 -10.491c-20.0615 -4.12701 -21 -15.108 -21 -21.401v-340.328
c0 -31.0537 -95 -45.7412 -145 -51.6153c-6.944 -0.8164 -13 -2.9375 -13 -5.03613s6.056 -4.21973 13 -5.03613c50 -5.87407 145 -20.5616 145 -51.6153v-340.328c0 -6.293 0.938499 -17.274 21 -21.401l51 -10.491c12 -2.51801 8 -10.071 -10 -7.134l-127 21.402
c-38.256 6.44699 -40 25.178 -40 36.508v346.202c0 13.4287 -36 17.625 -61 22.6602c-9.75101 1.96484 -18 4.19629 -18 9.23242z" />
    <glyph glyph-name="brace30" unicode="&#xe11e;" 
d="M-256 0c0 5.1084 8.24899 7.37305 18 9.36621c25 5.10839 61 9.36619 61 22.9893v351.229c0 11.495 1.744 30.499 40 37.039l127 21.712c18 2.98001 22 -4.68298 10 -7.237l-51 -10.643c-20.0615 -4.18698 -21 -15.327 -21 -21.713v-345.268
c0 -31.5039 -95 -46.4043 -145 -52.3652c-6.944 -0.82715 -13 -2.97949 -13 -5.1084s6.056 -4.28125 13 -5.1084c50 -5.9609 145 -20.8613 145 -52.3652v-345.268c0 -6.38599 0.938499 -17.526 21 -21.713l51 -10.643c12 -2.55402 8 -10.217 -10 -7.237l-127 21.712
c-38.256 6.53998 -40 25.544 -40 37.039v351.229c0 13.6231 -36 17.8809 -61 22.9893c-9.75101 1.99316 -18 4.25781 -18 9.36621z" />
    <glyph glyph-name="brace31" unicode="&#xe11f;" 
d="M-256 0c0 5.18262 8.24899 7.47949 18 9.50098c25 5.18162 61 9.50002 61 23.3193v356.273c0 11.659 1.744 30.935 40 37.57l127 22.025c18 3.022 22 -4.75098 10 -7.34198l-51 -10.796c-20.0615 -4.24698 -21 -15.547 -21 -22.025v-350.226
c0 -31.956 -95 -47.0713 -145 -53.1162c-6.944 -0.83985 -13 -3.02344 -13 -5.18262s6.056 -4.34277 13 -5.18262c50 -6.04488 145 -21.1602 145 -53.1162v-350.226c0 -6.478 0.938499 -17.778 21 -22.025l51 -10.796c12 -2.591 8 -10.364 -10 -7.34198l-127 22.025
c-38.256 6.634 -40 25.911 -40 37.57v356.273c0 13.8193 -36 18.1377 -61 23.3193c-9.75101 2.02149 -18 4.31836 -18 9.50098z" />
    <glyph glyph-name="brace32" unicode="&#xe120;" 
d="M-256 0c0 5.25586 8.24899 7.58496 18 9.63574c25 5.25586 61 9.63476 61 23.6504v361.33c0 11.825 1.744 31.376 40 38.105l127 22.337c18 3.06497 22 -4.819 10 -7.44702l-51 -10.949c-20.0615 -4.30698 -21 -15.767 -21 -22.337v-355.198
c0 -32.4102 -95 -47.7393 -145 -53.8711c-6.944 -0.85156 -13 -3.06641 -13 -5.25586s6.056 -4.4043 13 -5.25586c50 -6.13184 145 -21.4609 145 -53.8711v-355.198c0 -6.56998 0.938499 -18.03 21 -22.337l51 -10.949c12 -2.62802 8 -10.512 -10 -7.44702l-127 22.337
c-38.256 6.729 -40 26.28 -40 38.105v361.33c0 14.0156 -36 18.3945 -61 23.6504c-9.75101 2.05078 -18 4.37988 -18 9.63574z" />
    <glyph glyph-name="brace33" unicode="&#xe121;" 
d="M-256 0c0 5.3291 8.24899 7.69238 18 9.77051c25 5.33009 61 9.77149 61 23.9834v366.405c0 11.991 1.744 31.816 40 38.639l127 22.65c18 3.11002 22 -4.88501 10 -7.54999l-51 -11.103c-20.0615 -4.367 -21 -15.988 -21 -22.65v-360.188
c0 -32.8652 -95 -48.4101 -145 -54.6279c-6.944 -0.86328 -13 -3.1084 -13 -5.3291s6.056 -4.46582 13 -5.3291c50 -6.2178 145 -21.7627 145 -54.6279v-360.188c0 -6.66202 0.938499 -18.283 21 -22.65l51 -11.103c12 -2.66498 8 -10.66 -10 -7.54999l-127 22.65
c-38.256 6.82199 -40 26.648 -40 38.639v366.405c0 14.2119 -36 18.6533 -61 23.9834c-9.75101 2.07813 -18 4.44141 -18 9.77051z" />
    <glyph glyph-name="brace34" unicode="&#xe122;" 
d="M-256 0c0 5.40332 8.24899 7.79883 18 9.90625c25 5.40425 61 9.90725 61 24.3164v371.496c0 12.158 1.744 32.258 40 39.176l127 22.965c18 3.15201 22 -4.95398 10 -7.655l-51 -11.258c-20.0615 -4.427 -21 -16.211 -21 -22.965v-365.192
c0 -33.3222 -95 -49.082 -145 -55.3867c-6.944 -0.875 -13 -3.15137 -13 -5.40332s6.056 -4.52832 13 -5.40332c50 -6.30468 145 -22.0645 145 -55.3867v-365.192c0 -6.754 0.938499 -18.538 21 -22.965l51 -11.258c12 -2.70102 8 -10.807 -10 -7.655l-127 22.965
c-38.256 6.91699 -40 27.018 -40 39.176v371.496c0 14.4092 -36 18.9122 -61 24.3164c-9.75101 2.10742 -18 4.50293 -18 9.90625z" />
    <glyph glyph-name="brace35" unicode="&#xe123;" 
d="M-256 0c0 5.47754 8.24899 7.90625 18 10.043c25 5.4775 61 10.0429 61 24.6504v376.603c0 12.325 1.744 32.701 40 39.714l127 23.281c18 3.19501 22 -5.021 10 -7.75998l-51 -11.413c-20.0615 -4.48801 -21 -16.433 -21 -23.28v-370.212
c0 -33.7803 -95 -49.7569 -145 -56.1485c-6.944 -0.8877 -13 -3.19531 -13 -5.47754s6.056 -4.58984 13 -5.47754c50 -6.39156 145 -22.3682 145 -56.1485v-370.212c0 -6.84698 0.938499 -18.792 21 -23.28l51 -11.413c12 -2.73898 8 -10.955 -10 -7.75998l-127 23.281
c-38.256 7.01202 -40 27.389 -40 39.714v376.603c0 14.6075 -36 19.1729 -61 24.6504c-9.75101 2.13675 -18 4.56546 -18 10.043z" />
    <glyph glyph-name="brace36" unicode="&#xe124;" 
d="M-256 0c0 5.55273 8.24899 8.01367 18 10.1797c25 5.5517 61 10.1787 61 24.9853v381.726c0 12.492 1.744 33.146 40 40.255l127 23.596c18 3.23898 22 -5.08899 10 -7.86499l-51 -11.567c-20.0615 -4.55099 -21 -16.658 -21 -23.598v-375.248
c0 -34.2393 -95 -50.4336 -145 -56.9112c-6.944 -0.90039 -13 -3.23925 -13 -5.55273s6.056 -4.65234 13 -5.55273c50 -6.47757 145 -22.6719 145 -56.9112v-375.248c0 -6.94 0.938499 -19.047 21 -23.598l51 -11.567c12 -2.776 8 -11.104 -10 -7.86499l-127 23.596
c-38.256 7.10901 -40 27.763 -40 40.255v381.726c0 14.8066 -36 19.4336 -61 24.9853c-9.75101 2.16603 -18 4.62697 -18 10.1797z" />
    <glyph glyph-name="brace37" unicode="&#xe125;" 
d="M-256 0c0 5.62695 8.24899 8.12109 18 10.3164c25 5.627 61 10.3164 61 25.3223v386.863c0 12.661 1.744 33.592 40 40.796l127 23.916c18 3.28201 22 -5.15799 10 -7.97198l-51 -11.723c-20.0615 -4.612 -21 -16.881 -21 -23.915v-380.299
c0 -34.7002 -95 -51.1123 -145 -57.6777c-6.944 -0.91113 -13 -3.28222 -13 -5.62695s6.056 -4.71582 13 -5.62695c50 -6.56545 145 -22.9776 145 -57.6777v-380.299c0 -7.034 0.938499 -19.303 21 -23.915l51 -11.723c12 -2.814 8 -11.254 -10 -7.97198l-127 23.916
c-38.256 7.203 -40 28.135 -40 40.796v386.863c0 15.0059 -36 19.6953 -61 25.3223c-9.75101 2.19531 -18 4.68945 -18 10.3164z" />
    <glyph glyph-name="brace38" unicode="&#xe126;" 
d="M-256 0c0 5.70215 8.24899 8.22949 18 10.4541c25 5.7021 61 10.4531 61 25.6592v392.018c0 12.83 1.744 34.04 40 41.341l127 24.233c18 3.32602 22 -5.22598 10 -8.07797l-51 -11.879c-20.0615 -4.67297 -21 -17.106 -21 -24.234v-385.366
c0 -35.163 -95 -51.7939 -145 -58.4463c-6.944 -0.92383 -13 -3.32617 -13 -5.70215s6.056 -4.77832 13 -5.70215c50 -6.65235 145 -23.2832 145 -58.4463v-385.366c0 -7.12799 0.938499 -19.561 21 -24.234l51 -11.879c12 -2.85199 8 -11.404 -10 -8.07797l-127 24.233
c-38.256 7.29999 -40 28.511 -40 41.341v392.018c0 15.2061 -36 19.9571 -61 25.6592c-9.75101 2.22461 -18 4.75195 -18 10.4541z" />
    <glyph glyph-name="brace39" unicode="&#xe127;" 
d="M-256 0c0 5.77734 8.24899 8.33789 18 10.5918c25 5.7773 61 10.5918 61 25.998v397.188c0 12.999 1.744 34.49 40 41.886l127 24.554c18 3.37003 22 -5.29599 10 -8.185l-51 -12.036c-20.0615 -4.73401 -21 -17.332 -21 -24.554v-390.449
c0 -35.6259 -95 -52.4765 -145 -59.2168c-6.944 -0.93652 -13 -3.37011 -13 -5.77734s6.056 -4.84082 13 -5.77734c50 -6.74026 145 -23.5909 145 -59.2168v-390.449c0 -7.22202 0.938499 -19.82 21 -24.554l51 -12.036c12 -2.88901 8 -11.555 -10 -8.185l-127 24.554
c-38.256 7.396 -40 28.887 -40 41.886v397.188c0 15.4062 -36 20.2207 -61 25.998c-9.75101 2.25391 -18 4.81446 -18 10.5918z" />
    <glyph glyph-name="brace40" unicode="&#xe128;" 
d="M-256 0c0 5.85254 8.24899 8.44727 18 10.7305c25 5.8525 61 10.7295 61 26.3369v402.376c0 13.169 1.744 34.94 40 42.433l127 24.874c18 3.414 22 -5.36499 10 -8.29099l-51 -12.193c-20.0615 -4.797 -21 -17.559 -21 -24.874v-395.548
c0 -36.0928 -95 -53.1631 -145 -59.9913c-6.944 -0.94824 -13 -3.41406 -13 -5.85254s6.056 -4.9043 13 -5.85254c50 -6.82816 145 -23.8985 145 -59.9913v-395.548c0 -7.315 0.938499 -20.077 21 -24.874l51 -12.193c12 -2.92599 8 -11.705 -10 -8.29099l-127 24.874
c-38.256 7.49301 -40 29.264 -40 42.433v402.376c0 15.6074 -36 20.4844 -61 26.3369c-9.75101 2.28323 -18 4.87796 -18 10.7305z" />
    <glyph glyph-name="brace41" unicode="&#xe129;" 
d="M-256 0c0 5.92871 8.24899 8.55664 18 10.8691c25 5.9278 61 10.8682 61 26.6778v407.579c0 13.339 1.744 35.392 40 42.981l127 25.196c18 3.45801 22 -5.43497 10 -8.39899l-51 -12.35c-20.0615 -4.85898 -21 -17.786 -21 -25.197v-400.663
c0 -36.5586 -95 -53.8496 -145 -60.7656c-6.944 -0.96094 -13 -3.45898 -13 -5.92871s6.056 -4.96777 13 -5.92871c50 -6.91599 145 -24.207 145 -60.7656v-400.663c0 -7.41101 0.938499 -20.338 21 -25.197l51 -12.35c12 -2.96402 8 -11.857 -10 -8.39899l-127 25.196
c-38.256 7.58899 -40 29.642 -40 42.981v407.579c0 15.8096 -36 20.75 -61 26.6778c-9.75101 2.31246 -18 4.94039 -18 10.8691z" />
    <glyph glyph-name="brace42" unicode="&#xe12a;" 
d="M-256 0c0 6.00391 8.24899 8.66602 18 11.0078c25 6.0049 61 11.0078 61 27.0195v412.799c0 13.51 1.744 35.845 40 43.532l127 25.519c18 3.50201 22 -5.505 10 -8.50702l-51 -12.509c-20.0615 -4.92099 -21 -18.012 -21 -25.518v-405.794
c0 -37.0263 -95 -54.539 -145 -61.5449c-6.944 -0.97266 -13 -3.50196 -13 -6.00391s6.056 -5.03125 13 -6.00391c50 -7.00589 145 -24.5186 145 -61.5449v-405.794c0 -7.50601 0.938499 -20.597 21 -25.518l51 -12.509c12 -3.00201 8 -12.009 -10 -8.50702l-127 25.519
c-38.256 7.686 -40 30.022 -40 43.532v412.799c0 16.0117 -36 21.0146 -61 27.0195c-9.75101 2.34178 -18 5.00389 -18 11.0078z" />
    <glyph glyph-name="brace43" unicode="&#xe12b;" 
d="M-256 0c0 6.08008 8.24899 8.77539 18 11.1475c25 6.081 61 11.1474 61 27.3623v418.034c0 13.682 1.744 36.3 40 44.084l127 25.842c18 3.54706 22 -5.57397 10 -8.61499l-51 -12.667c-20.0615 -4.983 -21 -18.242 -21 -25.842v-410.941
c0 -37.4961 -95 -55.2305 -145 -62.3252c-6.944 -0.98438 -13 -3.54688 -13 -6.08008s6.056 -5.0957 13 -6.08008c50 -7.09472 145 -24.8291 145 -62.3252v-410.941c0 -7.60001 0.938499 -20.859 21 -25.842l51 -12.667c12 -3.04102 8 -12.162 -10 -8.61499l-127 25.842
c-38.256 7.784 -40 30.402 -40 44.084v418.034c0 16.2149 -36 21.2813 -61 27.3623c-9.75101 2.37211 -18 5.06742 -18 11.1475z" />
    <glyph glyph-name="brace44" unicode="&#xe12c;" 
d="M-256 0c0 6.15723 8.24899 8.88574 18 11.2881c25 6.1562 61 11.2871 61 27.706v423.286c0 13.853 1.744 36.755 40 44.638l127 26.166c18 3.59204 22 -5.64398 10 -8.72198l-51 -12.827c-20.0615 -5.04501 -21 -18.471 -21 -26.167v-416.103
c0 -37.9667 -95 -55.9248 -145 -63.1074c-6.944 -0.99805 -13 -3.5918 -13 -6.15723s6.056 -5.15918 13 -6.15723c50 -7.18257 145 -25.1407 145 -63.1074v-416.103c0 -7.69598 0.938499 -21.122 21 -26.167l51 -12.827c12 -3.078 8 -12.314 -10 -8.72198l-127 26.166
c-38.256 7.88199 -40 30.785 -40 44.638v423.286c0 16.4189 -36 21.5498 -61 27.706c-9.75101 2.40236 -18 5.13087 -18 11.2881z" />
    <glyph glyph-name="brace45" unicode="&#xe12d;" 
d="M-256 0c0 6.2334 8.24899 8.99707 18 11.4277c25 6.2344 61 11.4287 61 28.0518v428.555c0 14.027 1.744 37.213 40 45.194l127 26.493c18 3.63501 22 -5.71503 10 -8.83099l-51 -12.987c-20.0615 -5.10803 -21 -18.701 -21 -26.493v-421.283
c0 -38.4395 -95 -56.6211 -145 -63.8936c-6.944 -1.00977 -13 -3.63574 -13 -6.2334s6.056 -5.22363 13 -6.2334c50 -7.2725 145 -25.4541 145 -63.8936v-421.283c0 -7.79199 0.938499 -21.385 21 -26.493l51 -12.987c12 -3.11597 8 -12.466 -10 -8.83099l-127 26.493
c-38.256 7.98004 -40 31.167 -40 45.194v428.555c0 16.6231 -36 21.8174 -61 28.0518c-9.75101 2.43063 -18 5.1943 -18 11.4277z" />
    <glyph glyph-name="brace46" unicode="&#xe12e;" 
d="M-256 0c0 6.31055 8.24899 9.10742 18 11.5693c25 6.3106 61 11.5684 61 28.3965v433.841c0 14.198 1.744 37.671 40 45.75l127 26.819c18 3.68103 22 -5.784 10 -8.93896l-51 -13.148c-20.0615 -5.17102 -21 -18.931 -21 -26.818v-426.479
c0 -38.9141 -95 -57.3193 -145 -64.6817c-6.944 -1.02246 -13 -3.68164 -13 -6.31055s6.056 -5.28809 13 -6.31055c50 -7.36235 145 -25.7675 145 -64.6817v-426.479c0 -7.88699 0.938499 -21.647 21 -26.818l51 -13.148c12 -3.15497 8 -12.62 -10 -8.93896l-127 26.819
c-38.256 8.078 -40 31.552 -40 45.75v433.841c0 16.8281 -36 22.0859 -61 28.3965c-9.75101 2.46188 -18 5.25875 -18 11.5693z" />
    <glyph glyph-name="brace47" unicode="&#xe12f;" 
d="M-256 0c0 6.3877 8.24899 9.21875 18 11.7109c25 6.3868 61 11.71 61 28.7432v439.143c0 14.372 1.744 38.132 40 46.309l127 27.148c18 3.72498 22 -5.85602 10 -9.04901l-51 -13.308c-20.0615 -5.23401 -21 -19.163 -21 -27.147v-431.691
c0 -39.3897 -95 -58.0196 -145 -65.4717c-6.944 -1.03516 -13 -3.72657 -13 -6.3877s6.056 -5.35254 13 -6.3877c50 -7.4521 145 -26.082 145 -65.4717v-431.691c0 -7.98401 0.938499 -21.913 21 -27.147l51 -13.308c12 -3.19299 8 -12.774 -10 -9.04901l-127 27.148
c-38.256 8.177 -40 31.937 -40 46.309v439.143c0 17.0332 -36 22.3564 -61 28.7432c-9.75101 2.49215 -18 5.3232 -18 11.7109z" />
    <glyph glyph-name="brace48" unicode="&#xe130;" 
d="M-256 0c0 6.46484 8.24899 9.33105 18 11.8525c25 6.4649 61 11.8516 61 29.0918v444.461c0 14.546 1.744 38.594 40 46.87l127 27.476c18 3.771 22 -5.92596 10 -9.15796l-51 -13.469c-20.0615 -5.29803 -21 -19.395 -21 -27.476v-436.919
c0 -39.8662 -95 -58.7227 -145 -66.2647c-6.944 -1.04785 -13 -3.77148 -13 -6.46484s6.056 -5.41699 13 -6.46484c50 -7.54196 145 -26.3985 145 -66.2647v-436.919c0 -8.08099 0.938499 -22.178 21 -27.476l51 -13.469c12 -3.23199 8 -12.929 -10 -9.15796l-127 27.476
c-38.256 8.276 -40 32.324 -40 46.87v444.461c0 17.2402 -36 22.6269 -61 29.0918c-9.75101 2.52145 -18 5.38766 -18 11.8525z" />
    <glyph glyph-name="brace49" unicode="&#xe131;" 
d="M-256 0c0 6.54199 8.24899 9.44238 18 11.9941c25 6.543 61 11.9952 61 29.4414v449.795c0 14.72 1.744 39.057 40 47.433l127 27.806c18 3.81604 22 -5.99695 10 -9.26898l-51 -13.63c-20.0615 -5.362 -21 -19.628 -21 -27.805v-442.163
c0 -40.3447 -95 -59.4267 -145 -67.0605c-6.944 -1.05957 -13 -3.8164 -13 -6.54199s6.056 -5.48242 13 -6.54199c50 -7.63381 145 -26.7158 145 -67.0605v-442.163c0 -8.177 0.938499 -22.443 21 -27.805l51 -13.63c12 -3.27203 8 -13.085 -10 -9.26898l-127 27.806
c-38.256 8.375 -40 32.713 -40 47.433v449.795c0 17.4462 -36 22.8984 -61 29.4414c-9.75101 2.55172 -18 5.45211 -18 11.9941z" />
    <glyph glyph-name="brace50" unicode="&#xe132;" 
d="M-256 0c0 6.62012 8.24899 9.55469 18 12.1377c25 6.6201 61 12.1367 61 29.791v455.147c0 14.896 1.744 39.522 40 47.997l127 28.137c18 3.86096 22 -6.06903 10 -9.37903l-51 -13.793c-20.0615 -5.42505 -21 -19.86 -21 -28.136v-447.423
c0 -40.8252 -95 -60.1347 -145 -67.8584c-6.944 -1.07227 -13 -3.86133 -13 -6.62012s6.056 -5.54785 13 -6.62012c50 -7.72368 145 -27.0332 145 -67.8584v-447.423c0 -8.276 0.938499 -22.711 21 -28.136l51 -13.793c12 -3.31 8 -13.24 -10 -9.37903l-127 28.137
c-38.256 8.474 -40 33.101 -40 47.997v455.147c0 17.6543 -36 23.1709 -61 29.791c-9.75101 2.58301 -18 5.51758 -18 12.1377z" />
    <glyph glyph-name="brace51" unicode="&#xe133;" 
d="M-256 0c0 6.69824 8.24899 9.66797 18 12.2803c25 6.6982 61 12.2802 61 30.1426v460.515c0 15.072 1.744 39.988 40 48.564l127 28.468c18 3.90802 22 -6.13995 10 -9.48999l-51 -13.955c-20.0615 -5.48901 -21 -20.094 -21 -28.467v-452.701
c0 -41.3076 -95 -60.8437 -145 -68.6592c-6.944 -1.08496 -13 -3.90722 -13 -6.69824s6.056 -5.61328 13 -6.69824c50 -7.81546 145 -27.3516 145 -68.6592v-452.701c0 -8.37305 0.938499 -22.978 21 -28.467l51 -13.955c12 -3.35004 8 -13.398 -10 -9.48999l-127 28.468
c-38.256 8.57501 -40 33.492 -40 48.564v460.515c0 17.8624 -36 23.4444 -61 30.1426c-9.75101 2.61233 -18 5.58206 -18 12.2803z" />
    <glyph glyph-name="brace52" unicode="&#xe134;" 
d="M-256 0c0 6.77637 8.24899 9.78027 18 12.4238c25 6.7774 61 12.4239 61 30.4951v465.901c0 15.248 1.744 40.455 40 49.132l127 28.801c18 3.953 22 -6.21198 10 -9.60101l-51 -14.118c-20.0615 -5.55402 -21 -20.33 -21 -28.801v-457.995
c0 -41.7901 -95 -61.5557 -145 -69.4619c-6.944 -1.09766 -13 -3.95313 -13 -6.77637s6.056 -5.67871 13 -6.77637c50 -7.90623 145 -27.6718 145 -69.4619v-457.995c0 -8.47101 0.938499 -23.247 21 -28.801l51 -14.118c12 -3.38904 8 -13.554 -10 -9.60101l-127 28.801
c-38.256 8.67603 -40 33.884 -40 49.132v465.901c0 18.0712 -36 23.7177 -61 30.4951c-9.75101 2.64353 -18 5.64743 -18 12.4238z" />
    <glyph glyph-name="brace53" unicode="&#xe135;" 
d="M-256 0c0 6.85547 8.24899 9.89453 18 12.5684c25 6.8554 61 12.5673 61 30.8486v471.303c0 15.425 1.744 40.925 40 49.701l127 29.135c18 3.99896 22 -6.28406 10 -9.71106l-51 -14.283c-20.0615 -5.61804 -21 -20.566 -21 -29.134v-463.306
c0 -42.2744 -95 -62.2686 -145 -70.2666c-6.944 -1.11133 -13 -3.99902 -13 -6.85547s6.056 -5.74414 13 -6.85547c50 -7.99803 145 -27.9922 145 -70.2666v-463.306c0 -8.56799 0.938499 -23.516 21 -29.134l51 -14.283c12 -3.427 8 -13.71 -10 -9.71106l-127 29.135
c-38.256 8.776 -40 34.276 -40 49.701v471.303c0 18.2813 -36 23.9932 -61 30.8486c-9.75101 2.67387 -18 5.71293 -18 12.5684z" />
    <glyph glyph-name="brace54" unicode="&#xe136;" 
d="M-256 0c0 6.93457 8.24899 10.0078 18 12.7129c25 6.9336 61 12.7119 61 31.2031v476.722c0 15.601 1.744 41.394 40 50.272l127 29.47c18 4.04498 22 -6.35699 10 -9.823l-51 -14.447c-20.0615 -5.68201 -21 -20.801 -21 -29.469v-468.632
c0 -42.7608 -95 -62.9844 -145 -71.0742c-6.944 -1.12402 -13 -4.04492 -13 -6.93457s6.056 -5.81055 13 -6.93457c50 -8.08983 145 -28.3134 145 -71.0742v-468.632c0 -8.66803 0.938499 -23.787 21 -29.469l51 -14.447c12 -3.466 8 -13.868 -10 -9.823l-127 29.47
c-38.256 8.87695 -40 34.671 -40 50.272v476.722c0 18.4912 -36 24.2695 -61 31.2031c-9.75101 2.7051 -18 5.77833 -18 12.7129z" />
    <glyph glyph-name="brace55" unicode="&#xe137;" 
d="M-256 0c0 7.01367 8.24899 10.1221 18 12.8574c25 7.0137 61 12.8574 61 31.5596v482.157c0 15.78 1.744 41.867 40 50.846l127 29.807c18 4.09003 22 -6.42902 10 -9.93597l-51 -14.61c-20.0615 -5.74805 -21 -21.04 -21 -29.807v-473.976
c0 -43.248 -95 -63.7031 -145 -71.8847c-6.944 -1.13672 -13 -4.09179 -13 -7.01367s6.056 -5.87695 13 -7.01367c50 -8.18163 145 -28.6367 145 -71.8847v-473.976c0 -8.76697 0.938499 -24.059 21 -29.807l51 -14.61c12 -3.50696 8 -14.026 -10 -9.93597l-127 29.807
c-38.256 8.97797 -40 35.066 -40 50.846v482.157c0 18.7022 -36 24.5459 -61 31.5596c-9.75101 2.7353 -18 5.84373 -18 12.8574z" />
    <glyph glyph-name="brace56" unicode="&#xe138;" 
d="M-256 0c0 7.09277 8.24899 10.2363 18 13.0029c25 7.0928 61 13.003 61 31.916v487.61c0 15.959 1.744 42.341 40 51.421l127 30.144c18 4.13599 22 -6.50201 10 -10.048l-51 -14.776c-20.0615 -5.81201 -21 -21.278 -21 -30.143v-479.336
c0 -43.7373 -95 -64.4238 -145 -72.6982c-6.944 -1.14941 -13 -4.13769 -13 -7.09277s6.056 -5.94336 13 -7.09277c50 -8.27443 145 -28.9609 145 -72.6982v-479.336c0 -8.86499 0.938499 -24.331 21 -30.143l51 -14.776c12 -3.54596 8 -14.184 -10 -10.048l-127 30.144
c-38.256 9.07904 -40 35.462 -40 51.421v487.61c0 18.913 -36 24.8232 -61 31.916c-9.75101 2.7666 -18 5.91013 -18 13.0029z" />
    <glyph glyph-name="brace57" unicode="&#xe139;" 
d="M-256 0c0 7.17188 8.24899 10.3516 18 13.1484c25 7.1729 61 13.1495 61 32.2745v493.081c0 16.138 1.744 42.816 40 51.998l127 30.481c18 4.18402 22 -6.57397 10 -10.16l-51 -14.942c-20.0615 -5.87695 -21 -21.516 -21 -30.482v-484.714
c0 -44.2275 -95 -65.1464 -145 -73.5136c-6.944 -1.16211 -13 -4.1836 -13 -7.17188s6.056 -6.00977 13 -7.17188c50 -8.36722 145 -29.2861 145 -73.5136v-484.714c0 -8.966 0.938499 -24.605 21 -30.482l51 -14.942c12 -3.586 8 -14.344 -10 -10.16l-127 30.481
c-38.256 9.18201 -40 35.86 -40 51.998v493.081c0 19.125 -36 25.1016 -61 32.2745c-9.75101 2.7968 -18 5.97652 -18 13.1484z" />
    <glyph glyph-name="brace58" unicode="&#xe13a;" 
d="M-256 0c0 7.25195 8.24899 10.4668 18 13.2949c25 7.252 61 13.2949 61 32.6338v498.567c0 16.317 1.744 43.2921 40 52.576l127 30.822c18 4.229 22 -6.64801 10 -10.274l-51 -15.108c-20.0615 -5.94403 -21 -21.756 -21 -30.821v-490.107
c0 -44.7197 -95 -65.8711 -145 -74.332c-6.944 -1.1748 -13 -4.23047 -13 -7.25195s6.056 -6.07715 13 -7.25195c50 -8.46095 145 -29.6124 145 -74.332v-490.107c0 -9.065 0.938499 -24.877 21 -30.821l51 -15.108c12 -3.62598 8 -14.503 -10 -10.274l-127 30.822
c-38.256 9.28302 -40 36.259 -40 52.576v498.567c0 19.3389 -36 25.3818 -61 32.6338c-9.75101 2.8281 -18 6.04295 -18 13.2949z" />
    <glyph glyph-name="brace59" unicode="&#xe13b;" 
d="M-256 0c0 7.33203 8.24899 10.582 18 13.4424c25 7.331 61 13.4414 61 32.9931v504.073c0 16.497 1.744 43.769 40 53.156l127 31.161c18 4.27802 22 -6.72101 10 -10.387l-51 -15.275c-20.0615 -6.00897 -21 -21.996 -21 -31.161v-495.519
c0 -45.2139 -95 -66.5987 -145 -75.1524c-6.944 -1.18848 -13 -4.27734 -13 -7.33203s6.056 -6.14355 13 -7.33203c50 -8.55367 145 -29.9385 145 -75.1524v-495.519c0 -9.16504 0.938499 -25.152 21 -31.161l51 -15.275c12 -3.66595 8 -14.665 -10 -10.387l-127 31.161
c-38.256 9.38599 -40 36.659 -40 53.156v504.073c0 19.5517 -36 25.6621 -61 32.9931c-9.75101 2.8604 -18 6.11037 -18 13.4424z" />
    <glyph glyph-name="brace60" unicode="&#xe13c;" 
d="M-256 0c0 7.41211 8.24899 10.6982 18 13.5889c25 7.4121 61 13.5898 61 33.3554v509.594c0 16.678 1.744 44.25 40 53.739l127 31.502c18 4.32501 22 -6.79401 10 -10.5l-51 -15.442c-20.0615 -6.07397 -21 -22.237 -21 -31.502v-500.947
c0 -45.709 -95 -67.3281 -145 -75.9756c-6.944 -1.20117 -13 -4.32324 -13 -7.41211s6.056 -6.21094 13 -7.41211c50 -8.64749 145 -30.2666 145 -75.9756v-500.947c0 -9.26495 0.938499 -25.428 21 -31.502l51 -15.442c12 -3.70599 8 -14.825 -10 -10.5l-127 31.502
c-38.256 9.48798 -40 37.061 -40 53.739v509.594c0 19.7656 -36 25.9433 -61 33.3554c-9.75101 2.8907 -18 6.17679 -18 13.5889z" />
    <glyph glyph-name="brace61" unicode="&#xe13d;" 
d="M-256 0c0 7.49316 8.24899 10.8145 18 13.7373c25 7.4922 61 13.7363 61 33.7178v515.133c0 16.859 1.744 44.73 40 54.323l127 31.845c18 4.37103 22 -6.86896 10 -10.615l-51 -15.611c-20.0615 -6.13904 -21 -22.478 -21 -31.843v-506.392
c0 -46.206 -95 -68.0605 -145 -76.8017c-6.944 -1.21386 -13 -4.37109 -13 -7.49316s6.056 -6.2793 13 -7.49316c50 -8.74124 145 -30.5957 145 -76.8017v-506.392c0 -9.36499 0.938499 -25.704 21 -31.843l51 -15.611c12 -3.74603 8 -14.986 -10 -10.615l-127 31.845
c-38.256 9.59204 -40 37.464 -40 54.323v515.133c0 19.9815 -36 26.2256 -61 33.7178c-9.75101 2.9228 -18 6.24414 -18 13.7373z" />
    <glyph glyph-name="brace62" unicode="&#xe13e;" 
d="M-256 0c0 7.57324 8.24899 10.9307 18 13.8848c25 7.5742 61 13.8857 61 34.082v520.689c0 17.041 1.744 45.213 40 54.909l127 32.189c18 4.41797 22 -6.94305 10 -10.73l-51 -15.778c-20.0615 -6.20697 -21 -22.722 -21 -32.188v-511.854
c0 -46.7051 -95 -68.7949 -145 -77.6309c-6.944 -1.22656 -13 -4.41797 -13 -7.57324s6.056 -6.34668 13 -7.57324c50 -8.83596 145 -30.9258 145 -77.6309v-511.854c0 -9.466 0.938499 -25.981 21 -32.188l51 -15.778c12 -3.78699 8 -15.148 -10 -10.73l-127 32.189
c-38.256 9.69501 -40 37.868 -40 54.909v520.689c0 20.1963 -36 26.5078 -61 34.082c-9.75101 2.9541 -18 6.31156 -18 13.8848z" />
    <glyph glyph-name="brace63" unicode="&#xe13f;" 
d="M-256 0c0 7.6543 8.24899 11.0479 18 14.0332c25 7.6553 61 14.0342 61 34.4473v526.262c0 17.224 1.744 45.697 40 55.497l127 32.532c18 4.466 22 -7.01599 10 -10.843l-51 -15.948c-20.0615 -6.27301 -21 -22.964 -21 -32.533v-517.332
c0 -47.2051 -95 -69.5312 -145 -78.4619c-6.944 -1.24024 -13 -4.46485 -13 -7.6543s6.056 -6.41406 13 -7.6543c50 -8.9307 145 -31.2568 145 -78.4619v-517.332c0 -9.56903 0.938499 -26.26 21 -32.533l51 -15.948c12 -3.82697 8 -15.309 -10 -10.843l-127 32.532
c-38.256 9.79999 -40 38.273 -40 55.497v526.262c0 20.4131 -36 26.792 -61 34.4473c-9.75101 2.9853 -18 6.3789 -18 14.0332z" />
    <glyph glyph-name="brace64" unicode="&#xe140;" 
d="M-256 0c0 7.73633 8.24899 11.165 18 14.1826c25 7.7363 61 14.1826 61 34.8125v531.855c0 17.406 1.744 46.182 40 56.086l127 32.8781c18 4.513 22 -7.091 10 -10.96l-51 -16.116c-20.0615 -6.33997 -21 -23.2079 -21 -32.879v-522.829
c0 -47.7051 -95 -70.2686 -145 -79.294c-6.944 -1.25391 -13 -4.5127 -13 -7.73633s6.056 -6.48242 13 -7.73633c50 -9.02537 145 -31.5889 145 -79.294v-522.829c0 -9.67102 0.938499 -26.539 21 -32.879l51 -16.116c12 -3.86902 8 -15.473 -10 -10.96l-127 32.8781
c-38.256 9.90399 -40 38.68 -40 56.086v531.855c0 20.6299 -36 27.0762 -61 34.8125c-9.75101 3.0176 -18 6.44627 -18 14.1826z" />
    <glyph glyph-name="brace65" unicode="&#xe141;" 
d="M-256 0c0 7.81738 8.24899 11.2832 18 14.332c25 7.8184 61 14.333 61 35.1797v537.463c0 17.5891 1.744 46.669 40 56.677l127 33.225c18 4.56097 22 -7.16602 10 -11.074l-51 -16.287c-20.0615 -6.40698 -21 -23.454 -21 -33.225v-528.343
c0 -48.2089 -95 -71.0097 -145 -80.1308c-6.944 -1.2666 -13 -4.55957 -13 -7.81738s6.056 -6.55078 13 -7.81738c50 -9.12112 145 -31.9219 145 -80.1308v-528.343c0 -9.771 0.938499 -26.818 21 -33.225l51 -16.287c12 -3.90802 8 -15.635 -10 -11.074l-127 33.225
c-38.256 10.007 -40 39.088 -40 56.677v537.463c0 20.8467 -36 27.3613 -61 35.1797c-9.75101 3.0488 -18 6.51462 -18 14.332z" />
    <glyph glyph-name="brace66" unicode="&#xe142;" 
d="M-256 0c0 7.89941 8.24899 11.4014 18 14.4824c25 7.8994 61 14.4824 61 35.5479v543.089c0 17.774 1.744 47.158 40 57.272l127 33.572c18 4.60797 22 -7.24103 10 -11.191l-51 -16.4579c-20.0615 -6.47302 -21 -23.698 -21 -33.572v-533.873
c0 -48.7138 -95 -71.7539 -145 -80.9697c-6.944 -1.28027 -13 -4.60839 -13 -7.89941s6.056 -6.61914 13 -7.89941c50 -9.21579 145 -32.2559 145 -80.9697v-533.873c0 -9.87402 0.938499 -27.099 21 -33.572l51 -16.4579c12 -3.95001 8 -15.799 -10 -11.191l-127 33.572
c-38.256 10.114 -40 39.498 -40 57.272v543.089c0 21.0655 -36 27.6485 -61 35.5479c-9.75101 3.081 -18 6.58299 -18 14.4824z" />
    <glyph glyph-name="brace67" unicode="&#xe143;" 
d="M-256 0c0 7.98145 8.24899 11.5195 18 14.6328c25 7.9815 61 14.6328 61 35.917v548.732c0 17.958 1.744 47.648 40 57.866l127 33.922c18 4.65601 22 -7.31598 10 -11.307l-51 -16.628c-20.0615 -6.54102 -21 -23.946 -21 -33.922v-539.42
c0 -49.2198 -95 -72.5 -145 -81.8115c-6.944 -1.29297 -13 -4.65625 -13 -7.98145s6.056 -6.68848 13 -7.98145c50 -9.31155 145 -32.5918 145 -81.8115v-539.42c0 -9.97601 0.938499 -27.381 21 -33.922l51 -16.628c12 -3.99103 8 -15.963 -10 -11.307l-127 33.922
c-38.256 10.217 -40 39.908 -40 57.866v548.732c0 21.2842 -36 27.9355 -61 35.917c-9.75101 3.1133 -18 6.65135 -18 14.6328z" />
    <glyph glyph-name="brace68" unicode="&#xe144;" 
d="M-256 0c0 8.06348 8.24899 11.6387 18 14.7842c25 8.0635 61 14.7832 61 36.2871v554.395c0 18.143 1.744 48.139 40 58.463l127 34.271c18 4.70398 22 -7.39099 10 -11.424l-51 -16.799c-20.0615 -6.60901 -21 -24.192 -21 -34.272v-544.986
c0 -49.7276 -95 -73.2471 -145 -82.6553c-6.944 -1.30567 -13 -4.70313 -13 -8.06348s6.056 -6.75781 13 -8.06348c50 -9.40822 145 -32.9277 145 -82.6553v-544.986c0 -10.08 0.938499 -27.663 21 -34.272l51 -16.799c12 -4.03302 8 -16.128 -10 -11.424l-127 34.271
c-38.256 10.324 -40 40.32 -40 58.463v554.395c0 21.5039 -36 28.2236 -61 36.2871c-9.75101 3.1455 -18 6.72072 -18 14.7842z" />
    <glyph glyph-name="brace69" unicode="&#xe145;" 
d="M-256 0c0 8.14648 8.24899 11.7578 18 14.9355c25 8.1465 61 14.9346 61 36.6592v560.073c0 18.33 1.744 48.633 40 59.062l127 34.623c18 4.75195 22 -7.46802 10 -11.541l-51 -16.972c-20.0615 -6.67603 -21 -24.44 -21 -34.622v-550.57
c0 -50.2373 -95 -73.998 -145 -83.5019c-6.944 -1.32031 -13 -4.75195 -13 -8.14648s6.056 -6.82617 13 -8.14648c50 -9.50392 145 -33.2646 145 -83.5019v-550.57c0 -10.182 0.938499 -27.946 21 -34.622l51 -16.972c12 -4.073 8 -16.293 -10 -11.541l-127 34.623
c-38.256 10.429 -40 40.732 -40 59.062v560.073c0 21.7246 -36 28.5127 -61 36.6592c-9.75101 3.1777 -18 6.78902 -18 14.9355z" />
    <glyph glyph-name="brace70" unicode="&#xe146;" 
d="M-256 0c0 8.22949 8.24899 11.877 18 15.0869c25 8.2295 61 15.0879 61 37.0322v565.771c0 18.515 1.744 49.127 40 59.663l127 34.974c18 4.80103 22 -7.54297 10 -11.658l-51 -17.144c-20.0615 -6.745 -21 -24.689 -21 -34.975v-556.169
c0 -50.7481 -95 -74.751 -145 -84.3516c-6.944 -1.33301 -13 -4.80078 -13 -8.22949s6.056 -6.89648 13 -8.22949c50 -9.60061 145 -33.6035 145 -84.3516v-556.169c0 -10.286 0.938499 -28.23 21 -34.975l51 -17.144c12 -4.11499 8 -16.459 -10 -11.658l-127 34.974
c-38.256 10.535 -40 41.1479 -40 59.663v565.771c0 21.9443 -36 28.8027 -61 37.0322c-9.75101 3.2099 -18 6.85741 -18 15.0869z" />
    <glyph glyph-name="brace71" unicode="&#xe147;" 
d="M-256 0c0 8.3125 8.24899 11.9971 18 15.2393c25 8.3125 61 15.2402 61 37.4062v571.484c0 18.703 1.744 49.624 40 60.266l127 35.328c18 4.849 22 -7.62 10 -11.776l-51 -17.318c-20.0615 -6.81201 -21 -24.938 -21 -35.328v-561.786
c0 -51.2607 -95 -75.5049 -145 -85.2031c-6.944 -1.34668 -13 -4.84863 -13 -8.3125s6.056 -6.96582 13 -8.3125c50 -9.6982 145 -33.9424 145 -85.2031v-561.786c0 -10.39 0.938499 -28.516 21 -35.328l51 -17.318c12 -4.15601 8 -16.625 -10 -11.776l-127 35.328
c-38.256 10.641 -40 41.563 -40 60.266v571.484c0 22.166 -36 29.0937 -61 37.4062c-9.75101 3.2422 -18 6.9268 -18 15.2393z" />
    <glyph glyph-name="brace72" unicode="&#xe148;" 
d="M-256 0c0 8.39551 8.24899 12.1172 18 15.3926c25 8.3955 61 15.3926 61 37.7812v577.218c0 18.89 1.744 50.121 40 60.87l127 35.6819c18 4.89801 22 -7.69598 10 -11.894l-51 -17.491c-20.0615 -6.88104 -21 -25.188 -21 -35.683v-567.422
c0 -51.7754 -95 -76.2627 -145 -86.0586c-6.944 -1.36035 -13 -4.89746 -13 -8.39551s6.056 -7.03516 13 -8.39551c50 -9.79589 145 -34.2832 145 -86.0586v-567.422c0 -10.495 0.938499 -28.802 21 -35.683l51 -17.491c12 -4.198 8 -16.792 -10 -11.894l-127 35.6819
c-38.256 10.748 -40 41.98 -40 60.87v577.218c0 22.3886 -36 29.3857 -61 37.7812c-9.75101 3.2754 -18 6.99709 -18 15.3926z" />
    <glyph glyph-name="brace73" unicode="&#xe149;" 
d="M-256 0c0 8.47949 8.24899 12.2383 18 15.5459c25 8.4795 61 15.5459 61 38.1582v582.967c0 19.079 1.744 50.621 40 61.476l127 36.039c18 4.94604 22 -7.77295 10 -12.013l-51 -17.666c-20.0615 -6.948 -21 -25.439 -21 -36.038v-573.074
c0 -52.29 -95 -77.0224 -145 -86.915c-6.944 -1.37402 -13 -4.94629 -13 -8.47949s6.056 -7.10547 13 -8.47949c50 -9.89261 145 -34.625 145 -86.915v-573.074c0 -10.599 0.938499 -29.09 21 -36.038l51 -17.666c12 -4.24005 8 -16.959 -10 -12.013l-127 36.039
c-38.256 10.855 -40 42.397 -40 61.476v582.967c0 22.6123 -36 29.6787 -61 38.1582c-9.75101 3.3076 -18 7.06641 -18 15.5459z" />
    <glyph glyph-name="brace74" unicode="&#xe14a;" 
d="M-256 0c0 8.56348 8.24899 12.3594 18 15.6992c25 8.5635 61 15.7002 61 38.5362v588.736c0 19.267 1.744 51.121 40 62.085l127 36.394c18 4.995 22 -7.849 10 -12.132l-51 -17.839c-20.0615 -7.01801 -21 -25.691 -21 -36.395v-578.745
c0 -52.8077 -95 -77.7852 -145 -87.7754c-6.944 -1.3877 -13 -4.99512 -13 -8.56348s6.056 -7.17578 13 -8.56348c50 -9.99022 145 -34.9677 145 -87.7754v-578.745c0 -10.704 0.938499 -29.377 21 -36.395l51 -17.839c12 -4.28302 8 -17.127 -10 -12.132l-127 36.394
c-38.256 10.963 -40 42.8181 -40 62.085v588.736c0 22.836 -36 29.9727 -61 38.5362c-9.75101 3.3398 -18 7.13572 -18 15.6992z" />
    <glyph glyph-name="brace75" unicode="&#xe14b;" 
d="M-256 0c0 8.64746 8.24899 12.4805 18 15.8535c25 8.6485 61 15.8545 61 38.9151v594.522c0 19.457 1.744 51.624 40 62.694l127 36.753c18 5.04401 22 -7.92596 10 -12.251l-51 -18.015c-20.0615 -7.08698 -21 -25.944 -21 -36.753v-584.434
c0 -53.3262 -95 -78.5489 -145 -88.6377c-6.944 -1.40137 -13 -5.04394 -13 -8.64746s6.056 -7.24609 13 -8.64746c50 -10.0888 145 -35.3115 145 -88.6377v-584.434c0 -10.809 0.938499 -29.666 21 -36.753l51 -18.015c12 -4.32501 8 -17.295 -10 -12.251l-127 36.753
c-38.256 11.07 -40 43.237 -40 62.694v594.522c0 23.0606 -36 30.2666 -61 38.9151c-9.75101 3.373 -18 7.20604 -18 15.8535z" />
    <glyph glyph-name="brace76" unicode="&#xe14c;" 
d="M-256 0c0 8.73242 8.24899 12.6025 18 16.0088c25 8.7324 61 16.0088 61 39.2939v600.328c0 19.646 1.744 52.128 40 63.307l127 37.111c18 5.09399 22 -8.00403 10 -12.37l-51 -18.193c-20.0615 -7.15503 -21 -26.195 -21 -37.11v-590.141
c0 -53.8477 -95 -79.3165 -145 -89.503c-6.944 -1.41504 -13 -5.09375 -13 -8.73242s6.056 -7.31738 13 -8.73242c50 -10.1865 145 -35.6553 145 -89.503v-590.141c0 -10.915 0.938499 -29.955 21 -37.11l51 -18.193c12 -4.36597 8 -17.464 -10 -12.37l-127 37.111
c-38.256 11.179 -40 43.661 -40 63.307v600.328c0 23.2851 -36 30.5615 -61 39.2939c-9.75101 3.4063 -18 7.27638 -18 16.0088z" />
    <glyph glyph-name="brace77" unicode="&#xe14d;" 
d="M-256 0c0 8.81641 8.24899 12.7246 18 16.1641c25 8.8164 61 16.164 61 39.6748v606.15c0 19.838 1.744 52.634 40 63.922l127 37.471c18 5.14301 22 -8.08203 10 -12.49l-51 -18.369c-20.0615 -7.22504 -21 -26.45 -21 -37.47v-595.865
c0 -54.3701 -95 -80.086 -145 -90.3721c-6.944 -1.42774 -13 -5.14258 -13 -8.81641s6.056 -7.38867 13 -8.81641c50 -10.2861 145 -36.002 145 -90.3721v-595.865c0 -11.02 0.938499 -30.245 21 -37.47l51 -18.369c12 -4.40796 8 -17.633 -10 -12.49l-127 37.471
c-38.256 11.287 -40 44.084 -40 63.922v606.15c0 23.5108 -36 30.8584 -61 39.6748c-9.75101 3.4395 -18 7.34769 -18 16.1641z" />
    <glyph glyph-name="brace78" unicode="&#xe14e;" 
d="M-256 0c0 8.90137 8.24899 12.8477 18 16.3193c25 8.9024 61 16.3203 61 40.0577v611.992c0 20.028 1.744 53.141 40 64.537l127 37.832c18 5.19305 22 -8.15997 10 -12.61l-51 -18.546c-20.0615 -7.29498 -21 -26.705 -21 -37.832v-601.605
c0 -54.895 -95 -80.8579 -145 -91.2436c-6.944 -1.44239 -13 -5.19239 -13 -8.90137s6.056 -7.45898 13 -8.90137c50 -10.3857 145 -36.3486 145 -91.2436v-601.605c0 -11.127 0.938499 -30.537 21 -37.832l51 -18.546c12 -4.45001 8 -17.803 -10 -12.61l-127 37.832
c-38.256 11.395 -40 44.509 -40 64.537v611.992c0 23.7374 -36 31.1553 -61 40.0577c-9.75101 3.4716 -18 7.41793 -18 16.3193z" />
    <glyph glyph-name="brace79" unicode="&#xe14f;" 
d="M-256 0c0 8.9873 8.24899 12.9707 18 16.4756c25 8.9873 61 16.4765 61 40.4414v617.851c0 20.22 1.744 53.649 40 65.155l127 38.194c18 5.242 22 -8.23798 10 -12.731l-51 -18.723c-20.0615 -7.36505 -21 -26.961 -21 -38.194v-607.366
c0 -55.4194 -95 -81.6313 -145 -92.1157c-6.944 -1.45605 -13 -5.24316 -13 -8.9873s6.056 -7.53125 13 -8.9873c50 -10.4844 145 -36.6963 145 -92.1157v-607.366c0 -11.233 0.938499 -30.829 21 -38.194l51 -18.723c12 -4.49304 8 -17.973 -10 -12.731l-127 38.194
c-38.256 11.5049 -40 44.935 -40 65.155v617.851c0 23.9649 -36 31.4541 -61 40.4414c-9.75101 3.5049 -18 7.4883 -18 16.4756z" />
    <glyph glyph-name="brace80" unicode="&#xe150;" 
d="M-256 0c0 9.07227 8.24899 13.0938 18 16.6328c25 9.0723 61 16.6328 61 40.8262v623.729c0 20.412 1.744 54.159 40 65.774l127 38.558c18 5.29199 22 -8.31702 10 -12.853l-51 -18.9c-20.0615 -7.43604 -21 -27.218 -21 -38.558v-613.145
c0 -55.9458 -95 -82.4068 -145 -92.9917c-6.944 -1.46973 -13 -5.292 -13 -9.07227s6.056 -7.60254 13 -9.07227c50 -10.5849 145 -37.0459 145 -92.9917v-613.145c0 -11.34 0.938499 -31.122 21 -38.558l51 -18.9c12 -4.53601 8 -18.145 -10 -12.853l-127 38.558
c-38.256 11.614 -40 45.362 -40 65.774v623.729c0 24.1934 -36 31.7539 -61 40.8262c-9.75101 3.539 -18 7.56053 -18 16.6328z" />
    <glyph glyph-name="brace81" unicode="&#xe151;" 
d="M-256 0c0 9.1582 8.24899 13.2178 18 16.79c25 9.1582 61 16.7901 61 41.212v629.624c0 20.605 1.744 54.672 40 66.396l127 38.922c18 5.34302 22 -8.39398 10 -12.973l-51 -19.08c-20.0615 -7.505 -21 -27.474 -21 -38.922v-618.94
c0 -56.4753 -95 -83.1862 -145 -93.8708c-6.944 -1.48437 -13 -5.34277 -13 -9.1582s6.056 -7.67383 13 -9.1582c50 -10.6846 145 -37.3955 145 -93.8708v-618.94c0 -11.448 0.938499 -31.417 21 -38.922l51 -19.08c12 -4.57898 8 -18.316 -10 -12.973l-127 38.922
c-38.256 11.723 -40 45.791 -40 66.396v629.624c0 24.4219 -36 32.0538 -61 41.212c-9.75101 3.5722 -18 7.6318 -18 16.79z" />
    <glyph glyph-name="brace82" unicode="&#xe152;" 
d="M-256 0c0 9.24414 8.24899 13.3418 18 16.9473c25 9.2441 61 16.9482 61 41.5996v635.537c0 20.8 1.744 55.186 40 67.02l127 39.289c18 5.39197 22 -8.474 10 -13.096l-51 -19.259c-20.0615 -7.57605 -21 -27.732 -21 -39.288v-624.753
c0 -57.0058 -95 -83.9677 -145 -94.7529c-6.944 -1.49805 -13 -5.39258 -13 -9.24414s6.056 -7.74609 13 -9.24414c50 -10.7852 145 -37.7471 145 -94.7529v-624.753c0 -11.556 0.938499 -31.712 21 -39.288l51 -19.259c12 -4.62201 8 -18.488 -10 -13.096l-127 39.289
c-38.256 11.833 -40 46.22 -40 67.02v635.537c0 24.6514 -36 32.3555 -61 41.5996c-9.75101 3.6055 -18 7.70316 -18 16.9473z" />
    <glyph glyph-name="brace83" unicode="&#xe153;" 
d="M-256 0c0 9.33008 8.24899 13.4668 18 17.1055c25 9.331 61 17.1064 61 41.9873v641.471c0 20.995 1.744 55.702 40 67.647l127 39.654c18 5.44299 22 -8.55298 10 -13.218l-51 -19.438c-20.0615 -7.64697 -21 -27.992 -21 -39.655v-630.586
c0 -57.5383 -95 -84.7522 -145 -95.6379c-6.944 -1.51172 -13 -5.44238 -13 -9.33008s6.056 -7.81836 13 -9.33008c50 -10.8857 145 -38.0996 145 -95.6379v-630.586c0 -11.663 0.938499 -32.008 21 -39.655l51 -19.438c12 -4.66504 8 -18.661 -10 -13.218l-127 39.654
c-38.256 11.945 -40 46.652 -40 67.647v641.471c0 24.8809 -36 32.6563 -61 41.9873c-9.75101 3.6387 -18 7.77542 -18 17.1055z" />
    <glyph glyph-name="brace84" unicode="&#xe154;" 
d="M-256 0c0 9.41699 8.24899 13.5918 18 17.2646c25 9.417 61 17.2647 61 42.377v647.422c0 21.189 1.744 56.218 40 68.274l127 40.022c18 5.49402 22 -8.63098 10 -13.34l-51 -19.619c-20.0615 -7.71698 -21 -28.252 -21 -40.022v-636.437
c0 -58.0719 -95 -85.5387 -145 -96.525c-6.944 -1.52539 -13 -5.49316 -13 -9.41699s6.056 -7.8916 13 -9.41699c50 -10.9863 145 -38.4531 145 -96.525v-636.437c0 -11.77 0.938499 -32.305 21 -40.022l51 -19.619c12 -4.70898 8 -18.834 -10 -13.34l-127 40.022
c-38.256 12.055 -40 47.085 -40 68.274v647.422c0 25.1123 -36 32.96 -61 42.377c-9.75101 3.6728 -18 7.84761 -18 17.2646z" />
    <glyph glyph-name="brace85" unicode="&#xe155;" 
d="M-256 0c0 9.50391 8.24899 13.7168 18 17.4238c25 9.5039 61 17.4239 61 42.7676v653.394c0 21.384 1.744 56.736 40 68.903l127 40.392c18 5.54401 22 -8.71198 10 -13.464l-51 -19.8c-20.0615 -7.78802 -21 -28.512 -21 -40.3911v-642.306
c0 -58.6075 -95 -86.3272 -145 -97.4151c-6.944 -1.54004 -13 -5.54395 -13 -9.50391s6.056 -7.96387 13 -9.50391c50 -11.0879 145 -38.8076 145 -97.4151v-642.306c0 -11.879 0.938499 -32.603 21 -40.3911l51 -19.8c12 -4.75201 8 -19.008 -10 -13.464l-127 40.392
c-38.256 12.166 -40 47.519 -40 68.903v653.394c0 25.3437 -36 33.2637 -61 42.7676c-9.75101 3.707 -18 7.91989 -18 17.4238z" />
    <glyph glyph-name="brace86" unicode="&#xe156;" 
d="M-256 0c0 9.59082 8.24899 13.8428 18 17.584c25 9.5908 61 17.583 61 43.1592v659.383c0 21.58 1.744 57.256 40 69.535l127 40.762c18 5.59503 22 -8.79199 10 -13.587l-51 -19.982c-20.0615 -7.85999 -21 -28.773 -21 -40.762v-648.193
c0 -59.1451 -95 -87.1187 -145 -98.3082c-6.944 -1.55371 -13 -5.59473 -13 -9.59082s6.056 -8.03711 13 -9.59082c50 -11.1895 145 -39.1631 145 -98.3082v-648.193c0 -11.989 0.938499 -32.902 21 -40.762l51 -19.982c12 -4.79498 8 -19.182 -10 -13.587l-127 40.762
c-38.256 12.278 -40 47.955 -40 69.535v659.383c0 25.5762 -36 33.5684 -61 43.1592c-9.75101 3.7412 -18 7.99318 -18 17.584z" />
    <glyph glyph-name="brace87" unicode="&#xe157;" 
d="M-256 0c0 9.67871 8.24899 13.9688 18 17.7441c25 9.6778 61 17.7432 61 43.5528v665.39c0 21.776 1.744 57.777 40 70.168l127 41.133c18 5.646 22 -8.87195 10 -13.711l-51 -20.163c-20.0615 -7.93103 -21 -29.035 -21 -41.134v-654.098
c0 -59.6838 -95 -87.9123 -145 -99.2033c-6.944 -1.56836 -13 -5.64648 -13 -9.67871s6.056 -8.11035 13 -9.67871c50 -11.291 145 -39.5195 145 -99.2033v-654.098c0 -12.099 0.938499 -33.203 21 -41.134l51 -20.163c12 -4.83905 8 -19.357 -10 -13.711l-127 41.133
c-38.256 12.39 -40 48.392 -40 70.168v665.39c0 25.8096 -36 33.875 -61 43.5528c-9.75101 3.7753 -18 8.06539 -18 17.7441z" />
    <glyph glyph-name="brace88" unicode="&#xe158;" 
d="M-256 0c0 9.76562 8.24899 14.0947 18 17.9043c25 9.7666 61 17.9043 61 43.9473v671.417c0 21.973 1.744 58.3 40 70.803l127 41.506c18 5.69702 22 -8.95203 10 -13.835l-51 -20.347c-20.0615 -8.00201 -21 -29.297 -21 -41.504v-660.024
c0 -60.2235 -95 -88.7078 -145 -100.102c-6.944 -1.58203 -13 -5.69628 -13 -9.76562s6.056 -8.18359 13 -9.76562c50 -11.3946 145 -39.8789 145 -100.102v-660.024c0 -12.207 0.938499 -33.502 21 -41.504l51 -20.347c12 -4.883 8 -19.532 -10 -13.835l-127 41.506
c-38.256 12.502 -40 48.83 -40 70.803v671.417c0 26.043 -36 34.1807 -61 43.9473c-9.75101 3.8096 -18 8.13868 -18 17.9043z" />
    <glyph glyph-name="brace89" unicode="&#xe159;" 
d="M-256 0c0 9.85352 8.24899 14.2217 18 18.0654c25 9.8545 61 18.0655 61 44.3428v677.463c0 22.171 1.744 58.826 40 71.441l127 41.879c18 5.74902 22 -9.03198 10 -13.959l-51 -20.529c-20.0615 -8.07501 -21 -29.562 -21 -41.88v-665.966
c0 -60.7662 -95 -89.5064 -145 -101.003c-6.944 -1.59571 -13 -5.74805 -13 -9.85352s6.056 -8.25781 13 -9.85352c50 -11.4971 145 -40.2373 145 -101.003v-665.966c0 -12.318 0.938499 -33.805 21 -41.88l51 -20.529c12 -4.927 8 -19.708 -10 -13.959l-127 41.879
c-38.256 12.615 -40 49.27 -40 71.441v677.463c0 26.2773 -36 34.4883 -61 44.3428c-9.75101 3.8437 -18 8.21188 -18 18.0654z" />
    <glyph glyph-name="brace90" unicode="&#xe15a;" 
d="M-256 0c0 9.94238 8.24899 14.3496 18 18.2275c25 9.9424 61 18.2276 61 44.7403v683.526c0 22.37 1.744 59.353 40 72.081l127 42.254c18 5.80005 22 -9.11298 10 -14.085l-51 -20.713c-20.0615 -8.14703 -21 -29.826 -21 -42.254v-671.927
c0 -61.3109 -95 -90.309 -145 -101.908c-6.944 -1.61133 -13 -5.7998 -13 -9.94238s6.056 -8.33105 13 -9.94238c50 -11.5986 145 -40.5967 145 -101.908v-671.927c0 -12.428 0.938499 -34.107 21 -42.254l51 -20.713c12 -4.97198 8 -19.885 -10 -14.085l-127 42.254
c-38.256 12.727 -40 49.711 -40 72.081v683.526c0 26.5127 -36 34.7979 -61 44.7403c-9.75101 3.8779 -18 8.28512 -18 18.2275z" />
    <glyph glyph-name="brace91" unicode="&#xe15b;" 
d="M-256 0c0 10.0303 8.24899 14.4766 18 18.3896c25 10.0303 61 18.3897 61 45.1377v689.611c0 22.568 1.744 59.88 40 72.721l127 42.631c18 5.85199 22 -9.19397 10 -14.21l-51 -20.897c-20.0615 -8.21997 -21 -30.092 -21 -42.631v-677.906
c0 -61.8567 -95 -91.1126 -145 -102.816c-6.944 -1.62503 -13 -5.85061 -13 -10.0303s6.056 -8.40527 13 -10.0303c50 -11.7031 145 -40.959 145 -102.816v-677.906c0 -12.539 0.938499 -34.411 21 -42.631l51 -20.897c12 -5.01599 8 -20.062 -10 -14.21l-127 42.631
c-38.256 12.84 -40 50.153 -40 72.721v689.611c0 26.748 -36 35.1074 -61 45.1377c-9.75101 3.913 -18 8.3593 -18 18.3896z" />
    <glyph glyph-name="brace92" unicode="&#xe15c;" 
d="M-256 0c0 10.1191 8.24899 14.6055 18 18.5527c25 10.1192 61 18.5518 61 45.5371v695.712c0 22.768 1.744 60.411 40 73.366l127 43.008c18 5.90198 22 -9.27704 10 -14.336l-51 -21.082c-20.0615 -8.29297 -21 -30.359 -21 -43.008v-683.906
c0 -62.4036 -95 -91.9182 -145 -103.725c-6.944 -1.63961 -13 -5.9023 -13 -10.1191s6.056 -8.47949 13 -10.1191c50 -11.8067 145 -41.3213 145 -103.725v-683.906c0 -12.649 0.938499 -34.715 21 -43.008l51 -21.082c12 -5.05896 8 -20.238 -10 -14.336l-127 43.008
c-38.256 12.955 -40 50.598 -40 73.366v695.712c0 26.9853 -36 35.4179 -61 45.5371c-9.75101 3.9472 -18 8.4336 -18 18.5527z" />
    <glyph glyph-name="brace93" unicode="&#xe15d;" 
d="M-256 0c0 10.208 8.24899 14.7334 18 18.7158c25 10.208 61 18.7149 61 45.9375v701.834c0 22.97 1.744 60.943 40 74.012l127 43.386c18 5.95502 22 -9.35803 10 -14.462l-51 -21.2679c-20.0615 -8.36603 -21 -30.625 -21 -43.385v-689.924
c0 -62.9524 -95 -92.7278 -145 -104.638c-6.944 -1.65331 -13 -5.95409 -13 -10.208s6.056 -8.55469 13 -10.208c50 -11.9102 145 -41.6856 145 -104.638v-689.924c0 -12.76 0.938499 -35.019 21 -43.385l51 -21.2679c12 -5.104 8 -20.4171 -10 -14.462l-127 43.386
c-38.256 13.068 -40 51.0421 -40 74.012v701.834c0 27.2226 -36 35.7295 -61 45.9375c-9.75101 3.9824 -18 8.5078 -18 18.7158z" />
    <glyph glyph-name="brace94" unicode="&#xe15e;" 
d="M-256 0c0 10.2979 8.24899 14.8623 18 18.8789c25 10.2979 61 18.8799 61 46.3408v707.973c0 23.17 1.744 61.476 40 74.66l127 43.765c18 6.008 22 -9.43896 10 -14.588l-51 -21.454c-20.0615 -8.43896 -21 -30.893 -21 -43.765v-695.96
c0 -63.5033 -95 -93.5395 -145 -105.553c-6.944 -1.66899 -13 -6.00688 -13 -10.2979s6.056 -8.62891 13 -10.2979c50 -12.0136 145 -42.0498 145 -105.553v-695.96c0 -12.872 0.938499 -35.326 21 -43.765l51 -21.454c12 -5.14899 8 -20.5959 -10 -14.588l-127 43.765
c-38.256 13.183 -40 51.4901 -40 74.66v707.973c0 27.4609 -36 36.0429 -61 46.3408c-9.75101 4.0166 -18 8.581 -18 18.8789z" />
    <glyph glyph-name="brace95" unicode="&#xe15f;" 
d="M-256 0c0 10.3877 8.24899 14.9922 18 19.0439c25 10.3868 61 19.043 61 46.7432v714.134c0 23.371 1.744 62.01 40 75.308l127 44.147c18 6.05902 22 -9.52197 10 -14.716l-51 -21.64c-20.0615 -8.51202 -21 -31.163 -21 -44.147v-702.015
c0 -64.0553 -95 -94.3521 -145 -106.47c-6.944 -1.6836 -13 -6.05958 -13 -10.3877s6.056 -8.7041 13 -10.3877c50 -12.1182 145 -42.415 145 -106.47v-702.015c0 -12.984 0.938499 -35.635 21 -44.147l51 -21.64c12 -5.19403 8 -20.775 -10 -14.716l-127 44.147
c-38.256 13.297 -40 51.937 -40 75.308v714.134c0 27.7002 -36 36.3564 -61 46.7432c-9.75101 4.0517 -18 8.6562 -18 19.0439z" />
    <glyph glyph-name="brace96" unicode="&#xe160;" 
d="M-256 0c0 10.4775 8.24899 15.1221 18 19.208c25 10.4775 61 19.209 61 47.1484v720.314c0 23.573 1.744 62.546 40 75.96l127 44.528c18 6.112 22 -9.604 10 -14.843l-51 -21.828c-20.0615 -8.586 -21 -31.431 -21 -44.528v-708.09
c0 -64.6092 -95 -95.1678 -145 -107.392c-6.944 -1.6982 -13 -6.11227 -13 -10.4775s6.056 -8.7793 13 -10.4775c50 -12.2237 145 -42.7823 145 -107.392v-708.09c0 -13.097 0.938499 -35.942 21 -44.528l51 -21.828c12 -5.23901 8 -20.955 -10 -14.843l-127 44.528
c-38.256 13.413 -40 52.387 -40 75.96v720.314c0 27.9394 -36 36.6709 -61 47.1484c-9.75101 4.0859 -18 8.7305 -18 19.208z" />
    <glyph glyph-name="brace97" unicode="&#xe161;" 
d="M-256 0c0 10.5674 8.24899 15.252 18 19.374c25 10.5674 61 19.3731 61 47.5528v726.512c0 23.777 1.744 63.085 40 76.614l127 44.912c18 6.164 22 -9.68805 10 -14.971l-51 -22.015c-20.0615 -8.66101 -21 -31.703 -21 -44.912v-714.183
c0 -65.1662 -95 -95.9875 -145 -108.317c-6.944 -1.71193 -13 -6.16408 -13 -10.5674s6.056 -8.85547 13 -10.5674c50 -12.3291 145 -43.1504 145 -108.317v-714.183c0 -13.209 0.938499 -36.251 21 -44.912l51 -22.015c12 -5.28296 8 -21.135 -10 -14.971l-127 44.912
c-38.256 13.528 -40 52.837 -40 76.614v726.512c0 28.1797 -36 36.9854 -61 47.5528c-9.75101 4.122 -18 8.8066 -18 19.374z" />
    <glyph glyph-name="brace98" unicode="&#xe162;" 
d="M-256 0c0 10.6582 8.24899 15.3818 18 19.5391c25 10.6582 61 19.54 61 47.9609v732.729c0 23.981 1.744 63.625 40 77.27l127 45.296c18 6.21802 22 -9.76996 10 -15.099l-51 -22.203c-20.0615 -8.73401 -21 -31.973 -21 -45.296v-720.296
c0 -65.7233 -95 -96.8092 -145 -109.243c-6.944 -1.72754 -13 -6.21777 -13 -10.6582s6.056 -8.93066 13 -10.6582c50 -12.4336 145 -43.5195 145 -109.243v-720.296c0 -13.323 0.938499 -36.562 21 -45.296l51 -22.203c12 -5.32904 8 -21.317 -10 -15.099l-127 45.296
c-38.256 13.644 -40 53.289 -40 77.27v732.729c0 28.4209 -36 37.3027 -61 47.9609c-9.75101 4.1573 -18 8.8809 -18 19.5391z" />
    <glyph glyph-name="brace99" unicode="&#xe163;" 
d="M-256 0c0 10.749 8.24899 15.5137 18 19.7061c25 10.748 61 19.705 61 48.3681v738.967c0 24.185 1.744 64.166 40 77.928l127 45.681c18 6.26996 22 -9.85303 10 -15.2271l-51 -22.3929c-20.0615 -8.80804 -21 -32.246 -21 -45.681v-726.427
c0 -66.2833 -95 -97.6329 -145 -110.173c-6.944 -1.74216 -13 -6.27048 -13 -10.749s6.056 -9.00684 13 -10.749c50 -12.5401 145 -43.8897 145 -110.173v-726.427c0 -13.435 0.938499 -36.873 21 -45.681l51 -22.3929c12 -5.37402 8 -21.497 -10 -15.2271l-127 45.681
c-38.256 13.761 -40 53.743 -40 77.928v738.967c0 28.6631 -36 37.6201 -61 48.3681c-9.75101 4.1924 -18 8.9571 -18 19.7061z" />
    <glyph glyph-name="brace100" unicode="&#xe164;" 
d="M-256 0c0 10.8398 8.24899 15.6445 18 19.873c25 10.8389 61 19.8721 61 48.7774v745.224c0 24.389 1.744 64.71 40 78.587l127 46.068c18 6.32404 22 -9.93597 10 -15.356l-51 -22.582c-20.0615 -8.883 -21 -32.519 -21 -46.069v-732.577
c0 -66.8434 -95 -98.4596 -145 -111.105c-6.944 -1.75679 -13 -6.3232 -13 -10.8398s6.056 -9.08301 13 -10.8398c50 -12.6456 145 -44.2618 145 -111.105v-732.577c0 -13.55 0.938499 -37.186 21 -46.069l51 -22.582c12 -5.42004 8 -21.6801 -10 -15.356l-127 46.068
c-38.256 13.876 -40 54.198 -40 78.587v745.224c0 28.9053 -36 37.9385 -61 48.7774c-9.75101 4.2285 -18 9.0332 -18 19.873z" />
    <glyph glyph-name="brace101" unicode="&#xe165;" 
d="M-256 0c0 10.9307 8.24899 15.7764 18 20.04c25 10.9307 61 20.0401 61 49.1895v751.5c0 24.594 1.744 65.254 40 79.249l127 46.457c18 6.37598 22 -10.021 10 -15.487l-51 -22.772c-20.0615 -8.95801 -21 -32.793 -21 -46.4561v-738.747
c0 -67.4076 -95 -99.2894 -145 -112.042c-6.944 -1.77054 -13 -6.37601 -13 -10.9307s6.056 -9.16016 13 -10.9307c50 -12.7529 145 -44.6347 145 -112.042v-738.747c0 -13.663 0.938499 -37.498 21 -46.4561l51 -22.772c12 -5.466 8 -21.863 -10 -15.487l-127 46.457
c-38.256 13.994 -40 54.655 -40 79.249v751.5c0 29.1494 -36 38.2588 -61 49.1895c-9.75101 4.2636 -18 9.1093 -18 20.04z" />
    <glyph glyph-name="brace102" unicode="&#xe166;" 
d="M-256 0c0 11.0225 8.24899 15.9082 18 20.208c25 11.0225 61 20.208 61 49.6016v757.795c0 24.8 1.744 65.801 40 79.914l127 46.844c18 6.43103 22 -10.103 10 -15.615l-51 -22.963c-20.0615 -9.03296 -21 -33.067 -21 -46.8459v-744.936
c0 -67.9718 -95 -100.121 -145 -112.98c-6.944 -1.78617 -13 -6.42973 -13 -11.0225s6.056 -9.23633 13 -11.0225c50 -12.8593 145 -45.0087 145 -112.98v-744.936c0 -13.779 0.938499 -37.813 21 -46.8459l51 -22.963c12 -5.51202 8 -22.046 -10 -15.615l-127 46.844
c-38.256 14.112 -40 55.114 -40 79.914v757.795c0 29.3936 -36 38.5791 -61 49.6016c-9.75101 4.2998 -18 9.1855 -18 20.208z" />
    <glyph glyph-name="brace103" unicode="&#xe167;" 
d="M-256 0c0 11.1143 8.24899 16.041 18 20.376c25 11.1142 61 20.3769 61 50.0146v764.112c0 25.007 1.744 66.35 40 80.579l127 47.235c18 6.48401 22 -10.187 10 -15.745l-51 -23.155c-20.0615 -9.10699 -21 -33.343 -21 -47.235v-751.146
c0 -68.538 -95 -100.955 -145 -113.922c-6.944 -1.80082 -13 -6.48344 -13 -11.1143s6.056 -9.31348 13 -11.1143c50 -12.9668 145 -45.3837 145 -113.922v-751.146c0 -13.892 0.938499 -38.128 21 -47.235l51 -23.155c12 -5.55798 8 -22.229 -10 -15.745l-127 47.235
c-38.256 14.228 -40 55.572 -40 80.579v764.112c0 29.6377 -36 38.9004 -61 50.0146c-9.75101 4.335 -18 9.2617 -18 20.376z" />
    <glyph glyph-name="brace104" unicode="&#xe168;" 
d="M-256 0c0 11.2061 8.24899 16.1738 18 20.5449c25 11.2071 61 20.5459 61 50.4297v770.447c0 25.215 1.744 66.9 40 81.247l127 47.628c18 6.53699 22 -10.273 10 -15.876l-51 -23.347c-20.0615 -9.18298 -21 -33.619 -21 -47.628v-757.373
c0 -69.1062 -95 -101.792 -145 -114.867c-6.944 -1.81548 -13 -6.53715 -13 -11.2061s6.056 -9.39062 13 -11.2061c50 -13.0751 145 -45.7607 145 -114.867v-757.373c0 -14.009 0.938499 -38.445 21 -47.628l51 -23.347c12 -5.60297 8 -22.413 -10 -15.876l-127 47.628
c-38.256 14.346 -40 56.032 -40 81.247v770.447c0 29.8838 -36 39.2226 -61 50.4297c-9.75101 4.3711 -18 9.3388 -18 20.5449z" />
    <glyph glyph-name="brace105" unicode="&#xe169;" 
d="M-256 0c0 11.2988 8.24899 16.3076 18 20.7148c25 11.2989 61 20.7149 61 50.8448v776.802c0 25.423 1.744 67.452 40 81.918l127 48.021c18 6.591 22 -10.358 10 -16.007l-51 -23.54c-20.0615 -9.26001 -21 -33.897 -21 -48.0211v-763.62
c0 -69.6765 -95 -102.632 -145 -115.814c-6.944 -1.83103 -13 -6.59079 -13 -11.2988s6.056 -9.46777 13 -11.2988c50 -13.1826 145 -46.1377 145 -115.814v-763.62c0 -14.124 0.938499 -38.761 21 -48.0211l51 -23.54c12 -5.64899 8 -22.598 -10 -16.007l-127 48.021
c-38.256 14.465 -40 56.4951 -40 81.918v776.802c0 30.1299 -36 39.5459 -61 50.8448c-9.75101 4.4072 -18 9.416 -18 20.7148z" />
    <glyph glyph-name="brace106" unicode="&#xe16a;" 
d="M-256 0c0 11.3916 8.24899 16.4414 18 20.8848c25 11.3916 61 20.8847 61 51.2627v783.177c0 25.632 1.744 68.006 40 82.59l127 48.415c18 6.64496 22 -10.442 10 -16.139l-51 -23.732c-20.0615 -9.336 -21 -34.175 -21 -48.415v-769.888
c0 -70.2478 -95 -103.474 -145 -116.764c-6.944 -1.8457 -13 -6.64551 -13 -11.3916s6.056 -9.5459 13 -11.3916c50 -13.29 145 -46.5166 145 -116.764v-769.888c0 -14.24 0.938499 -39.079 21 -48.415l51 -23.732c12 -5.69702 8 -22.784 -10 -16.139l-127 48.415
c-38.256 14.583 -40 56.958 -40 82.59v783.177c0 30.378 -36 39.8711 -61 51.2627c-9.75101 4.4434 -18 9.4932 -18 20.8848z" />
    <glyph glyph-name="brace107" unicode="&#xe16b;" 
d="M-256 0c0 11.4844 8.24899 16.5752 18 21.0557c25 11.4843 61 21.0547 61 51.6806v789.574c0 25.84 1.744 68.561 40 83.264l127 48.81c18 6.69604 22 -10.528 10 -16.27l-51 -23.926c-20.0615 -9.41199 -21 -34.455 -21 -48.81v-776.175
c0 -70.8221 -95 -104.319 -145 -117.719c-6.944 -1.86038 -13 -6.69924 -13 -11.4844s6.056 -9.62402 13 -11.4844c50 -13.3994 145 -46.8965 145 -117.719v-776.175c0 -14.355 0.938499 -39.398 21 -48.81l51 -23.926c12 -5.742 8 -22.966 -10 -16.27l-127 48.81
c-38.256 14.702 -40 57.424 -40 83.264v789.574c0 30.6259 -36 40.1963 -61 51.6806c-9.75101 4.4805 -18 9.5713 -18 21.0557z" />
    <glyph glyph-name="brace108" unicode="&#xe16c;" 
d="M-256 0c0 11.5781 8.24899 16.71 18 21.2266c25 11.5781 61 21.2265 61 52.1005v795.989c0 26.05 1.744 69.118 40 83.941l127 49.203c18 6.75995 22 -10.61 10 -16.399l-51 -24.121c-20.0615 -9.48798 -21 -34.734 -21 -49.207v-782.48
c0 -71.3985 -95 -105.167 -145 -118.675c-6.944 -1.87595 -13 -6.75388 -13 -11.5781s6.056 -9.70215 13 -11.5781c50 -13.5078 145 -47.2764 145 -118.675v-782.48c0 -14.473 0.938499 -39.7191 21 -49.207l51 -24.121c12 -5.789 8 -23.159 -10 -16.399l-127 49.203
c-38.256 14.822 -40 57.891 -40 83.941v795.989c0 30.874 -36 40.5224 -61 52.1005c-9.75101 4.5166 -18 9.6485 -18 21.2266z" />
    <glyph glyph-name="brace109" unicode="&#xe16d;" 
d="M-256 0c0 11.6719 8.24899 16.8457 18 21.3984c25 11.6709 61 21.3975 61 52.5215v802.424c0 26.261 1.744 69.677 40 84.619l127 49.607c18 6.81 22 -10.702 10 -16.537l-51 -24.316c-20.0615 -9.565 -21 -35.015 -21 -49.605v-788.806
c0 -71.9749 -95 -106.018 -145 -119.634c-6.944 -1.89163 -13 -6.80862 -13 -11.6719s6.056 -9.78027 13 -11.6719c50 -13.6162 145 -47.6592 145 -119.634v-788.806c0 -14.59 0.938499 -40.04 21 -49.605l51 -24.316c12 -5.83496 8 -23.347 -10 -16.537l-127 49.607
c-38.256 14.942 -40 58.358 -40 84.619v802.424c0 31.124 -36 40.8506 -61 52.5215c-9.75101 4.5527 -18 9.7265 -18 21.3984z" />
    <glyph glyph-name="brace110" unicode="&#xe16e;" 
d="M-256 0c0 11.7656 8.24899 16.9805 18 21.5703c25 11.7656 61 21.5703 61 52.9443v808.88c0 26.472 1.744 70.237 40 85.299l127 50.006c18 6.86005 22 -10.79 10 -16.67l-51 -24.511c-20.0615 -9.64197 -21 -35.297 -21 -50.004v-795.153
c0 -72.5544 -95 -106.87 -145 -120.596c-6.944 -1.90622 -13 -6.86326 -13 -11.7656s6.056 -9.85938 13 -11.7656c50 -13.7266 145 -48.042 145 -120.596v-795.153c0 -14.707 0.938499 -40.362 21 -50.004l51 -24.511c12 -5.87994 8 -23.53 -10 -16.67l-127 50.006
c-38.256 15.061 -40 58.827 -40 85.299v808.88c0 31.374 -36 41.1787 -61 52.9443c-9.75101 4.5898 -18 9.8047 -18 21.5703z" />
    <glyph glyph-name="brace111" unicode="&#xe16f;" 
d="M-256 0c0 11.8594 8.24899 17.1172 18 21.7432c25 11.8593 61 21.7422 61 53.3681v815.356c0 26.684 1.744 70.8 40 85.982l127 50.401c18 6.92004 22 -10.87 10 -16.8l-51 -24.705c-20.0615 -9.71997 -21 -35.579 -21 -50.405v-801.518
c0 -73.1349 -95 -107.726 -145 -121.563c-6.944 -1.92092 -13 -6.91799 -13 -11.8594s6.056 -9.93848 13 -11.8594c50 -13.8369 145 -48.4277 145 -121.563v-801.518c0 -14.826 0.938499 -40.685 21 -50.405l51 -24.705c12 -5.92999 8 -23.72 -10 -16.8l-127 50.401
c-38.256 15.181 -40 59.298 -40 85.982v815.356c0 31.6259 -36 41.5088 -61 53.3681c-9.75101 4.626 -18 9.8838 -18 21.7432z" />
    <glyph glyph-name="brace112" unicode="&#xe170;" 
d="M-256 0c0 11.9541 8.24899 17.2529 18 21.916c25 11.9541 61 21.916 61 53.794v821.852c0 26.896 1.744 71.363 40 86.667l127 50.811c18 6.96997 22 -10.9601 10 -16.9401l-51 -24.905c-20.0615 -9.797 -21 -35.863 -21 -50.805v-807.906
c0 -73.7164 -95 -108.584 -145 -122.53c-6.944 -1.9365 -13 -6.97363 -13 -11.9541s6.056 -10.0176 13 -11.9541c50 -13.9463 145 -48.8135 145 -122.53v-807.906c0 -14.942 0.938499 -41.008 21 -50.805l51 -24.905c12 -5.97998 8 -23.91 -10 -16.9401l-127 50.811
c-38.256 15.303 -40 59.771 -40 86.667v821.852c0 31.878 -36 41.8399 -61 53.794c-9.75101 4.6631 -18 9.9619 -18 21.916z" />
    <glyph glyph-name="brace113" unicode="&#xe171;" 
d="M-256 0c0 12.0488 8.24899 17.3896 18 22.0898c25 12.0489 61 22.0899 61 54.2207v828.367c0 27.11 1.744 71.929 40 87.355l127 51.207c18 7.03003 22 -11.04 10 -17.0699l-51 -25.1c-20.0615 -9.875 -21 -36.147 -21 -51.209v-814.31
c0 -74.302 -95 -109.445 -145 -123.502c-6.944 -1.9521 -13 -7.02829 -13 -12.0488s6.056 -10.0967 13 -12.0488c50 -14.0576 145 -49.2002 145 -123.502v-814.31c0 -15.062 0.938499 -41.334 21 -51.209l51 -25.1c12 -6.02991 8 -24.1 -10 -17.0699l-127 51.207
c-38.256 15.425 -40 60.245 -40 87.355v828.367c0 32.1308 -36 42.1718 -61 54.2207c-9.75101 4.7002 -18 10.041 -18 22.0898z" />
    <glyph glyph-name="brace114" unicode="&#xe172;" 
d="M-256 0c0 12.1445 8.24899 17.5273 18 22.2637c25 12.1445 61 22.2646 61 54.6484v834.905c0 27.325 1.744 72.497 40 88.044l127 51.6089c18 7.09009 22 -11.13 10 -17.2l-51 -25.3c-20.0615 -9.95197 -21 -36.433 -21 -51.613v-820.736
c0 -74.8886 -95 -110.309 -145 -124.477c-6.944 -1.9677 -13 -7.08493 -13 -12.1445s6.056 -10.1768 13 -12.1445c50 -14.168 145 -49.5879 145 -124.477v-820.736c0 -15.18 0.938499 -41.661 21 -51.613l51 -25.3c12 -6.06995 8 -24.29 -10 -17.2l-127 51.6089
c-38.256 15.546 -40 60.719 -40 88.044v834.905c0 32.3838 -36 42.5039 -61 54.6484c-9.75101 4.7364 -18 10.1192 -18 22.2637z" />
    <glyph glyph-name="brace115" unicode="&#xe173;" 
d="M-256 0c0 12.2393 8.24899 17.665 18 22.4395c25 12.2392 61 22.4384 61 55.0771v841.462c0 27.538 1.744 73.066 40 88.731l127 52.02c18 7.14001 22 -11.22 10 -17.34l-51 -25.5c-20.0615 -10.03 -21 -36.714 -21 -52.014v-827.183
c0 -75.4762 -95 -111.174 -145 -125.454c-6.944 -1.9834 -13 -7.13969 -13 -12.2393s6.056 -10.2559 13 -12.2393c50 -14.2793 145 -49.9775 145 -125.454v-827.183c0 -15.3 0.938499 -41.984 21 -52.014l51 -25.5c12 -6.12 8 -24.48 -10 -17.34l-127 52.02
c-38.256 15.664 -40 61.193 -40 88.731v841.462c0 32.6387 -36 42.8379 -61 55.0771c-9.75101 4.7745 -18 10.2002 -18 22.4395z" />
    <glyph glyph-name="brace116" unicode="&#xe174;" 
d="M-256 0c0 12.335 8.24899 17.8027 18 22.6143c25 12.3349 61 22.6142 61 55.5078v848.04c0 27.754 1.744 73.638 40 89.428l127 52.43c18 7.18994 22 -11.3101 10 -17.48l-51 -25.7001c-20.0615 -10.11 -21 -37.002 -21 -52.421v-833.648
c0 -76.0679 -95 -112.044 -145 -126.436c-6.944 -1.9981 -13 -7.19535 -13 -12.335s6.056 -10.3369 13 -12.335c50 -14.3916 145 -50.3681 145 -126.436v-833.648c0 -15.419 0.938499 -42.311 21 -52.421l51 -25.7001c12 -6.16992 8 -24.6699 -10 -17.48l-127 52.43
c-38.256 15.789 -40 61.674 -40 89.428v848.04c0 32.8936 -36 43.1729 -61 55.5078c-9.75101 4.8116 -18 10.2793 -18 22.6143z" />
    <glyph glyph-name="brace117" unicode="&#xe175;" 
d="M-256 0c0 12.4307 8.24899 17.9414 18 22.79c25 12.4317 61 22.7911 61 55.9405v854.637c0 27.97 1.744 74.212 40 90.122l127 52.84c18 7.25 22 -11.3999 10 -17.62l-51 -25.89c-20.0615 -10.1899 -21 -37.2969 -21 -52.835v-840.135
c0 -76.6586 -95 -112.916 -145 -127.419c-6.944 -2.0137 -13 -7.25101 -13 -12.4307s6.056 -10.417 13 -12.4307c50 -14.5029 145 -50.7607 145 -127.419v-840.135c0 -15.538 0.938499 -42.645 21 -52.835l51 -25.89c12 -6.22009 8 -24.87 -10 -17.62l-127 52.84
c-38.256 15.91 -40 62.152 -40 90.122v854.637c0 33.1494 -36 43.5088 -61 55.9405c-9.75101 4.8486 -18 10.3593 -18 22.79z" />
    <glyph glyph-name="brace118" unicode="&#xe176;" 
d="M-256 0c0 12.5273 8.24899 18.0801 18 22.9668c25 12.5273 61 22.9668 61 56.373v861.257c0 28.186 1.744 74.783 40 90.8231l127 53.24c18 7.30994 22 -11.48 10 -17.74l-51 -26.1001c-20.0615 -10.2699 -21 -37.59 -21 -53.2449v-846.642
c0 -77.2523 -95 -113.79 -145 -128.406c-6.944 -2.0293 -13 -7.30757 -13 -12.5273s6.056 -10.498 13 -12.5273c50 -14.6153 145 -51.1534 145 -128.406v-846.642c0 -15.655 0.938499 -42.975 21 -53.2449l51 -26.1001c12 -6.26001 8 -25.0499 -10 -17.74l-127 53.24
c-38.256 16.04 -40 62.637 -40 90.8231v861.257c0 33.4062 -36 43.8457 -61 56.373c-9.75101 4.8867 -18 10.4395 -18 22.9668z" />
    <glyph glyph-name="brace119" unicode="&#xe177;" 
d="M-256 0c0 12.624 8.24899 18.2197 18 23.1436c25 12.624 61 23.1445 61 56.8085v867.896c0 28.404 1.744 75.362 40 91.522l127 53.65c18 7.37 22 -11.5701 10 -17.88l-51 -26.3c-20.0615 -10.35 -21 -37.87 -21 -53.652v-853.168c0 -77.8481 -95 -114.668 -145 -129.396
c-6.944 -2.0459 -13 -7.36423 -13 -12.624s6.056 -10.5781 13 -12.624c50 -14.7276 145 -51.5479 145 -129.396v-853.168c0 -15.782 0.938499 -43.302 21 -53.652l51 -26.3c12 -6.30994 8 -25.25 -10 -17.88l-127 53.65c-38.256 16.16 -40 63.118 -40 91.522v867.896
c0 33.664 -36 44.1845 -61 56.8085c-9.75101 4.9239 -18 10.5196 -18 23.1436z" />
    <glyph glyph-name="brace120" unicode="&#xe178;" 
d="M-256 0c0 12.7207 8.24899 18.3594 18 23.3213c25 12.7207 61 23.3213 61 57.2441v874.557c0 28.622 1.744 75.938 40 92.228l127 54.0601c18 7.41992 22 -11.66 10 -18.02l-51 -26.5c-20.0615 -10.4301 -21 -38.16 -21 -54.06v-859.721
c0 -78.4449 -95 -115.547 -145 -130.388c-6.944 -2.0605 -13 -7.41992 -13 -12.7207s6.056 -10.6602 13 -12.7207c50 -14.8408 145 -51.9434 145 -130.388v-859.721c0 -15.9 0.938499 -43.6299 21 -54.06l51 -26.5c12 -6.35999 8 -25.4399 -10 -18.02l-127 54.0601
c-38.256 16.2899 -40 63.606 -40 92.228v874.557c0 33.9228 -36 44.5234 -61 57.2441c-9.75101 4.9619 -18 10.6006 -18 23.3213z" />
    <glyph glyph-name="brace121" unicode="&#xe179;" 
d="M-256 0c0 12.8184 8.24899 18.5 18 23.5c25 12.8174 61 23.499 61 57.6807v881.238c0 28.841 1.744 76.5209 40 92.931l127 54.48c18 7.47009 22 -11.75 10 -18.1599l-51 -26.7101c-20.0615 -10.5 -21 -38.45 -21 -54.47v-866.287c0 -79.0448 -95 -116.431 -145 -131.385
c-6.944 -2.0772 -13 -7.47758 -13 -12.8184s6.056 -10.7412 13 -12.8184c50 -14.9541 145 -52.3398 145 -131.385v-866.287c0 -16.02 0.938499 -43.97 21 -54.47l51 -26.7101c12 -6.40991 8 -25.63 -10 -18.1599l-127 54.48c-38.256 16.41 -40 64.09 -40 92.931v881.238
c0 34.1817 -36 44.8633 -61 57.6807c-9.75101 5 -18 10.6816 -18 23.5z" />
    <glyph glyph-name="brace122" unicode="&#xe17a;" 
d="M-256 0c0 12.915 8.24899 18.6406 18 23.6787c25 12.9151 61 23.6777 61 58.1192v887.94c0 29.061 1.744 77.102 40 93.642l127 54.89c18 7.53003 22 -11.84 10 -18.3l-51 -26.9099c-20.0615 -10.5801 -21 -38.7401 -21 -54.8901v-872.87
c0 -79.6467 -95 -117.317 -145 -132.385c-6.944 -2.0918 -13 -7.53316 -13 -12.915s6.056 -10.8232 13 -12.915c50 -15.0684 145 -52.7383 145 -132.385v-872.87c0 -16.15 0.938499 -44.31 21 -54.8901l51 -26.9099c12 -6.46008 8 -25.8301 -10 -18.3l-127 54.89
c-38.256 16.54 -40 64.581 -40 93.642v887.94c0 34.4415 -36 45.2041 -61 58.1192c-9.75101 5.0381 -18 10.7637 -18 23.6787z" />
    <glyph glyph-name="brace123" unicode="&#xe17b;" 
d="M-256 0c0 13.0137 8.24899 18.7822 18 23.8574c25 13.0137 61 23.8584 61 58.5606v894.664c0 29.278 1.744 77.688 40 94.3481l127 55.2999c18 7.59998 22 -11.9199 10 -18.4299l-51 -27.1101c-20.0615 -10.6699 -21 -39.0399 -21 -55.3099v-879.481
c0 -80.2476 -95 -118.204 -145 -133.385c-6.944 -2.1084 -13 -7.59182 -13 -13.0137s6.056 -10.9053 13 -13.0137c50 -15.1816 145 -53.1377 145 -133.385v-879.481c0 -16.27 0.938499 -44.64 21 -55.3099l51 -27.1101c12 -6.51001 8 -26.0299 -10 -18.4299l-127 55.2999
c-38.256 16.66 -40 65.0701 -40 94.3481v894.664c0 34.7022 -36 45.5469 -61 58.5606c-9.75101 5.0752 -18 10.8437 -18 23.8574z" />
    <glyph glyph-name="brace124" unicode="&#xe17c;" 
d="M-256 0c0 13.1113 8.24899 18.9238 18 24.0371c25 13.1123 61 24.0381 61 59.002v901.408c0 29.503 1.744 78.2729 40 95.053l127 55.73c18 7.65002 22 -12.02 10 -18.58l-51 -27.3101c-20.0615 -10.75 -21 -39.34 -21 -55.72v-886.117
c0 -80.8536 -95 -119.095 -145 -134.392c-6.944 -2.124 -13 -7.64841 -13 -13.1113s6.056 -10.9873 13 -13.1113c50 -15.2969 145 -53.5381 145 -134.392v-886.117c0 -16.38 0.938499 -44.97 21 -55.72l51 -27.3101c12 -6.55994 8 -26.23 -10 -18.58l-127 55.73
c-38.256 16.78 -40 65.55 -40 95.053v901.408c0 34.9639 -36 45.8897 -61 59.002c-9.75101 5.1133 -18 10.9258 -18 24.0371z" />
    <glyph glyph-name="brace125" unicode="&#xe17d;" 
d="M-256 0c0 13.21 8.24899 19.0654 18 24.2178c25 13.2099 61 24.2177 61 59.4443v908.174c0 29.724 1.744 78.864 40 95.774l127 56.14c18 7.69995 22 -12.11 10 -18.72l-51 -27.52c-20.0615 -10.8201 -21 -39.63 -21 -56.14v-892.76c0 -81.4606 -95 -119.989 -145 -135.4
c-6.944 -2.1407 -13 -7.70609 -13 -13.21s6.056 -11.0693 13 -13.21c50 -15.4111 145 -53.9394 145 -135.4v-892.76c0 -16.51 0.938499 -45.3199 21 -56.14l51 -27.52c12 -6.60999 8 -26.4199 -10 -18.72l-127 56.14c-38.256 16.91 -40 66.05 -40 95.774v908.174
c0 35.2266 -36 46.2344 -61 59.4443c-9.75101 5.1524 -18 11.0078 -18 24.2178z" />
    <glyph glyph-name="brace126" unicode="&#xe17e;" 
d="M-256 0c0 13.3086 8.24899 19.208 18 24.3994c25 13.3076 61 24.3985 61 59.8877v914.96c0 29.9429 1.744 79.4529 40 96.483l127 56.5601c18 7.77002 22 -12.1901 10 -18.8501l-51 -27.72c-20.0615 -10.9099 -21 -39.9299 -21 -56.5699v-899.429
c0 -82.0696 -95 -120.886 -145 -136.412c-6.944 -2.1563 -13 -7.76368 -13 -13.3086s6.056 -11.1523 13 -13.3086c50 -15.5264 145 -54.3428 145 -136.412v-899.429c0 -16.64 0.938499 -45.66 21 -56.5699l51 -27.72c12 -6.66003 8 -26.6201 -10 -18.8501l-127 56.5601
c-38.256 17.03 -40 66.54 -40 96.483v914.96c0 35.4892 -36 46.5801 -61 59.8877c-9.75101 5.1914 -18 11.0908 -18 24.3994z" />
    <glyph glyph-name="brace127" unicode="&#xe17f;" 
d="M-256 0c0 13.4072 8.24899 19.3506 18 24.5801c25 13.4082 61 24.581 61 60.334v921.766c0 30.17 1.744 80.04 40 97.21l127 56.98c18 7.81995 22 -12.29 10 -18.99l-51 -27.9401c-20.0615 -10.98 -21 -40.22 -21 -56.98v-906.125c0 -82.6797 -95 -121.785 -145 -137.428
c-6.944 -2.1718 -13 -7.82029 -13 -13.4072s6.056 -11.2354 13 -13.4072c50 -15.6426 145 -54.7481 145 -137.428v-906.125c0 -16.76 0.938499 -46 21 -56.98l51 -27.9401c12 -6.69995 8 -26.8099 -10 -18.99l-127 56.98c-38.256 17.17 -40 67.04 -40 97.21v921.766
c0 35.753 -36 46.9258 -61 60.334c-9.75101 5.2295 -18 11.1729 -18 24.5801z" />
    <glyph glyph-name="brace128" unicode="&#xe180;" 
d="M-256 0c0 13.5068 8.24899 19.4941 18 24.7627c25 13.5068 61 24.7627 61 60.7812v928.596c0 30.39 1.744 80.63 40 97.9299l127 57.4c18 7.88 22 -12.38 10 -19.14l-51 -28.13c-20.0615 -11.0699 -21 -40.5199 -21 -57.4099v-912.838
c0 -83.2918 -95 -122.687 -145 -138.445c-6.944 -2.1884 -13 -7.87887 -13 -13.5068s6.056 -11.3184 13 -13.5068c50 -15.7578 145 -55.1534 145 -138.445v-912.838c0 -16.89 0.938499 -46.34 21 -57.4099l51 -28.13c12 -6.76001 8 -27.02 -10 -19.14l-127 57.4
c-38.256 17.2999 -40 67.5399 -40 97.9299v928.596c0 36.0185 -36 47.2744 -61 60.7812c-9.75101 5.2686 -18 11.2559 -18 24.7627z" />
    <glyph glyph-name="brace129" unicode="&#xe181;" 
d="M-256 0c0 13.6064 8.24899 19.6377 18 24.9453c25 13.6065 61 24.9453 61 61.2295v935.445c0 30.62 1.744 81.23 40 98.65l127 57.83c18 7.94006 22 -12.48 10 -19.28l-51 -28.35c-20.0615 -11.15 -21 -40.8099 -21 -57.8199v-919.577
c0 -83.907 -95 -123.592 -145 -139.467c-6.944 -2.2041 -13 -7.93745 -13 -13.6064s6.056 -11.4023 13 -13.6064c50 -15.8741 145 -55.5596 145 -139.467v-919.577c0 -17.01 0.938499 -46.6699 21 -57.8199l51 -28.35c12 -6.80005 8 -27.2201 -10 -19.28l-127 57.83
c-38.256 17.42 -40 68.03 -40 98.65v935.445c0 36.2842 -36 47.623 -61 61.2295c-9.75101 5.3076 -18 11.3389 -18 24.9453z" />
    <glyph glyph-name="brace130" unicode="&#xe182;" 
d="M-256 0c0 13.7061 8.24899 19.7822 18 25.1289c25 13.7061 61 25.1279 61 61.6787v942.322c0 30.84 1.744 81.8199 40 99.37l127 58.25c18 8 22 -12.5601 10 -19.42l-51 -28.5499c-20.0615 -11.23 -21 -41.12 -21 -58.25v-926.332c0 -84.5232 -95 -124.501 -145 -140.492
c-6.944 -2.2207 -13 -7.99516 -13 -13.7061s6.056 -11.4854 13 -13.7061c50 -15.9912 145 -55.9687 145 -140.492v-926.332c0 -17.13 0.938499 -47.02 21 -58.25l51 -28.5499c12 -6.85999 8 -27.42 -10 -19.42l-127 58.25c-38.256 17.55 -40 68.53 -40 99.37v942.322
c0 36.5508 -36 47.9726 -61 61.6787c-9.75101 5.3467 -18 11.4228 -18 25.1289z" />
    <glyph glyph-name="brace131" unicode="&#xe183;" 
d="M-256 0c0 13.8066 8.24899 19.9268 18 25.3125c25 13.8066 61 25.3125 61 62.1299v949.218c0 31.0599 1.744 82.4199 40 100.1l127 58.67c18 8.05994 22 -12.65 10 -19.55l-51 -28.77c-20.0615 -11.3099 -21 -41.42 -21 -58.6799v-933.104
c0 -85.1414 -95 -125.411 -145 -141.519c-6.944 -2.2373 -13 -8.05367 -13 -13.8066s6.056 -11.5693 13 -13.8066c50 -16.1084 145 -56.378 145 -141.519v-933.104c0 -17.2599 0.938499 -47.37 21 -58.6799l51 -28.77c12 -6.90002 8 -27.61 -10 -19.55l-127 58.67
c-38.256 17.6801 -40 69.04 -40 100.1v949.218c0 36.8174 -36 48.3233 -61 62.1299c-9.75101 5.3857 -18 11.5059 -18 25.3125z" />
    <glyph glyph-name="brace132" unicode="&#xe184;" 
d="M-256 0c0 13.9072 8.24899 20.0723 18 25.4971c25 13.9072 61 25.4961 61 62.583v956.13c0 31.29 1.744 83.02 40 100.83l127 59.1c18 8.12 22 -12.75 10 -19.7001l-51 -28.97c-20.0615 -11.4 -21 -41.72 -21 -59.11v-939.903c0 -85.7617 -95 -126.324 -145 -142.55
c-6.944 -2.2529 -13 -8.11228 -13 -13.9072s6.056 -11.6543 13 -13.9072c50 -16.2256 145 -56.7881 145 -142.55v-939.903c0 -17.39 0.938499 -47.71 21 -59.11l51 -28.97c12 -6.95007 8 -27.8201 -10 -19.7001l-127 59.1c-38.256 17.8101 -40 69.54 -40 100.83v956.13
c0 37.0869 -36 48.6758 -61 62.583c-9.75101 5.4248 -18 11.5899 -18 25.4971z" />
    <glyph glyph-name="brace133" unicode="&#xe185;" 
d="M-256 0c0 14.0078 8.24899 20.2178 18 25.6816c25 14.0088 61 25.6817 61 63.0372v963.071c0 31.51 1.744 83.62 40 101.55l127 59.54c18 8.17004 22 -12.84 10 -19.85l-51 -29.1801c-20.0615 -11.48 -21 -42.02 -21 -59.53v-946.727
c0 -86.384 -95 -127.241 -145 -143.585c-6.944 -2.2695 -13 -8.17089 -13 -14.0078s6.056 -11.7383 13 -14.0078c50 -16.3438 145 -57.2012 145 -143.585v-946.727c0 -17.51 0.938499 -48.05 21 -59.53l51 -29.1801c12 -7.01001 8 -28.02 -10 -19.85l-127 59.54
c-38.256 17.9299 -40 70.0399 -40 101.55v963.071c0 37.3555 -36 49.0284 -61 63.0372c-9.75101 5.4638 -18 11.6738 -18 25.6816z" />
    <glyph glyph-name="brace134" unicode="&#xe186;" 
d="M-256 0c0 14.1094 8.24899 20.3643 18 25.8672c25 14.1094 61 25.8672 61 63.4922v970.021c0 31.75 1.744 84.23 40 102.3l127 59.96c18 8.22998 22 -12.9301 10 -19.99l-51 -29.39c-20.0615 -11.5601 -21 -42.33 -21 -59.97v-953.559
c0 -87.0083 -95 -128.161 -145 -144.622c-6.944 -2.2862 -13 -8.23049 -13 -14.1094s6.056 -11.8232 13 -14.1094c50 -16.4609 145 -57.6133 145 -144.622v-953.559c0 -17.64 0.938499 -48.4099 21 -59.97l51 -29.39c12 -7.05994 8 -28.22 -10 -19.99l-127 59.96
c-38.256 18.0601 -40 70.55 -40 102.3v970.021c0 37.625 -36 49.3828 -61 63.4922c-9.75101 5.5029 -18 11.7578 -18 25.8672z" />
    <glyph glyph-name="brace135" unicode="&#xe187;" 
d="M-256 0c0 14.2109 8.24899 20.5107 18 26.0537c25 14.2109 61 26.0537 61 63.9492v977.007c0 31.97 1.744 84.83 40 103.03l127 60.39c18 8.28992 22 -13.02 10 -20.13l-51 -29.6001c-20.0615 -11.6499 -21 -42.6399 -21 -60.3999v-960.426
c0 -87.6347 -95 -129.084 -145 -145.663c-6.944 -2.3027 -13 -8.29 -13 -14.2109s6.056 -11.9082 13 -14.2109c50 -16.5791 145 -58.0284 145 -145.663v-960.426c0 -17.76 0.938499 -48.75 21 -60.3999l51 -29.6001c12 -7.10999 8 -28.4199 -10 -20.13l-127 60.39
c-38.256 18.1901 -40 71.0601 -40 103.03v977.007c0 37.8955 -36 49.7383 -61 63.9492c-9.75101 5.543 -18 11.8428 -18 26.0537z" />
    <glyph glyph-name="brace136" unicode="&#xe188;" 
d="M-256 0c0 14.3125 8.24899 20.6572 18 26.2402c25 14.3125 61 26.2403 61 64.4073v984.003c0 32.21 1.744 85.45 40 103.77l127 60.83c18 8.34998 22 -13.12 10 -20.27l-51 -29.8199c-20.0615 -11.73 -21 -42.9401 -21 -60.8301v-967.31
c0 -88.2632 -95 -130.009 -145 -146.708c-6.944 -2.3184 -13 -8.34863 -13 -14.3125s6.056 -11.9941 13 -14.3125c50 -16.6982 145 -58.4443 145 -146.708v-967.31c0 -17.89 0.938499 -49.1001 21 -60.8301l51 -29.8199c12 -7.15002 8 -28.62 -10 -20.27l-127 60.83
c-38.256 18.3201 -40 71.5601 -40 103.77v984.003c0 38.167 -36 50.0948 -61 64.4073c-9.75101 5.583 -18 11.9277 -18 26.2402z" />
    <glyph glyph-name="brace137" unicode="&#xe189;" 
d="M-256 0c0 14.415 8.24899 20.8047 18 26.4277c25 14.4151 61 26.4268 61 64.8672v991.035c0 32.4301 1.744 86.05 40 104.5l127 61.27c18 8.41003 22 -13.22 10 -20.4199l-51 -30.03c-20.0615 -11.8201 -21 -43.25 -21 -61.27v-974.211
c0 -88.8926 -95 -130.937 -145 -147.754c-6.944 -2.3359 -13 -8.40914 -13 -14.415s6.056 -12.0791 13 -14.415c50 -16.8174 145 -58.8614 145 -147.754v-974.211c0 -18.02 0.938499 -49.45 21 -61.27l51 -30.03c12 -7.19995 8 -28.83 -10 -20.4199l-127 61.27
c-38.256 18.45 -40 72.0699 -40 104.5v991.035c0 38.4404 -36 50.4521 -61 64.8672c-9.75101 5.623 -18 12.0127 -18 26.4277z" />
    <glyph glyph-name="brace138" unicode="&#xe18a;" 
d="M-256 0c0 14.5176 8.24899 20.9531 18 26.6152c25 14.5176 61 26.6153 61 65.3291v998.076c0 32.66 1.744 86.6699 40 105.25l127 61.7c18 8.46997 22 -13.3099 10 -20.5599l-51 -30.25c-20.0615 -11.9 -21 -43.55 -21 -61.7001v-981.139
c0 -89.5241 -95 -131.867 -145 -148.803c-6.944 -2.3526 -13 -8.46877 -13 -14.5176s6.056 -12.165 13 -14.5176c50 -16.9365 145 -59.2793 145 -148.803v-981.139c0 -18.15 0.938499 -49.8 21 -61.7001l51 -30.25c12 -7.25 8 -29.0299 -10 -20.5599l-127 61.7
c-38.256 18.5801 -40 72.59 -40 105.25v998.076c0 38.7138 -36 50.8115 -61 65.3291c-9.75101 5.6621 -18 12.0976 -18 26.6152z" />
    <glyph glyph-name="brace139" unicode="&#xe18b;" 
d="M-256 0c0 14.6201 8.24899 21.1016 18 26.8037c25 14.6201 61 26.8037 61 65.791v1005.15c0 32.89 1.744 87.28 40 106l127 62.13c18 8.53003 22 -13.4 10 -20.71l-51 -30.4601c-20.0615 -11.98 -21 -43.86 -21 -62.13v-988.091c0 -90.1597 -95 -132.801 -145 -149.859
c-6.944 -2.3691 -13 -8.5283 -13 -14.6201s6.056 -12.251 13 -14.6201c50 -17.0576 145 -59.6992 145 -149.859v-988.091c0 -18.27 0.938499 -50.15 21 -62.13l51 -30.4601c12 -7.30994 8 -29.24 -10 -20.71l-127 62.13c-38.256 18.72 -40 73.11 -40 106v1005.15
c0 38.9873 -36 51.1709 -61 65.791c-9.75101 5.7021 -18 12.1836 -18 26.8037z" />
    <glyph glyph-name="brace140" unicode="&#xe18c;" 
d="M-256 0c0 14.7236 8.24899 21.25 18 26.9932c25 14.7236 61 26.9931 61 66.2548v1012.23c0 33.13 1.744 87.9 40 106.75l127 62.5701c18 8.58997 22 -13.49 10 -20.8601l-51 -30.6699c-20.0615 -12.0601 -21 -44.17 -21 -62.5701v-995.061
c0 -90.7952 -95 -133.739 -145 -150.915c-6.944 -2.3857 -13 -8.58883 -13 -14.7236s6.056 -12.3379 13 -14.7236c50 -17.1768 145 -60.1202 145 -150.915v-995.061c0 -18.4 0.938499 -50.51 21 -62.5701l51 -30.6699c12 -7.37012 8 -29.4501 -10 -20.8601l-127 62.5701
c-38.256 18.85 -40 73.62 -40 106.75v1012.23c0 39.2617 -36 51.5312 -61 66.2548c-9.75101 5.7432 -18 12.2696 -18 26.9932z" />
    <glyph glyph-name="brace141" unicode="&#xe18d;" 
d="M-256 0c0 14.8271 8.24899 21.3994 18 27.1826c25 14.8272 61 27.1826 61 66.7207v1019.35c0 33.36 1.744 88.51 40 107.5l127 63.01c18 8.65002 22 -13.59 10 -21.01l-51 -30.88c-20.0615 -12.16 -21 -44.49 -21 -63.02v-1002.05c0 -91.4319 -95 -134.677 -145 -151.975
c-6.944 -2.4023 -13 -8.64937 -13 -14.8271s6.056 -12.4248 13 -14.8271c50 -17.2979 145 -60.543 145 -151.975v-1002.05c0 -18.53 0.938499 -50.86 21 -63.02l51 -30.88c12 -7.42004 8 -29.66 -10 -21.01l-127 63.01c-38.256 18.99 -40 74.14 -40 107.5v1019.35
c0 39.5381 -36 51.8935 -61 66.7207c-9.75101 5.7832 -18 12.3555 -18 27.1826z" />
    <glyph glyph-name="brace142" unicode="&#xe18e;" 
d="M-256 0c0 14.9307 8.24899 21.5488 18 27.373c25 14.9307 61 27.3731 61 67.1875v1026.48c0 33.6 1.744 89.13 40 108.25l127 63.45c18 8.70996 22 -13.6799 10 -21.15l-51 -31.1c-20.0615 -12.24 -21 -44.79 -21 -63.46v-1009.06c0 -92.0725 -95 -135.62 -145 -153.039
c-6.944 -2.419 -13 -8.71 -13 -14.9307s6.056 -12.5117 13 -14.9307c50 -17.4189 145 -60.9668 145 -153.039v-1009.06c0 -18.6699 0.938499 -51.22 21 -63.46l51 -31.1c12 -7.47009 8 -29.86 -10 -21.15l-127 63.45c-38.256 19.11 -40 74.65 -40 108.25v1026.48
c0 39.8144 -36 52.2568 -61 67.1875c-9.75101 5.8242 -18 12.4423 -18 27.373z" />
    <glyph glyph-name="brace143" unicode="&#xe18f;" 
d="M-256 0c0 15.0352 8.24899 21.6992 18 27.5635c25 15.0351 61 27.5635 61 67.6562v1033.64c0 33.83 1.744 89.75 40 109l127 63.9c18 8.77002 22 -13.78 10 -21.3l-51 -31.3199c-20.0615 -12.3201 -21 -45.11 -21 -63.9v-1016.1c0 -92.7142 -95 -136.566 -145 -154.106
c-6.944 -2.4366 -13 -8.77055 -13 -15.0352s6.056 -12.5986 13 -15.0352c50 -17.54 145 -61.3916 145 -154.106v-1016.1c0 -18.79 0.938499 -51.58 21 -63.9l51 -31.3199c12 -7.52002 8 -30.0701 -10 -21.3l-127 63.9c-38.256 19.25 -40 75.17 -40 109v1033.64
c0 40.0927 -36 52.6211 -61 67.6562c-9.75101 5.8643 -18 12.5283 -18 27.5635z" />
    <glyph glyph-name="brace144" unicode="&#xe190;" 
d="M-256 0c0 15.1396 8.24899 21.8496 18 27.7549c25 15.1396 61 27.7558 61 68.1269v1040.82c0 34.0601 1.744 90.38 40 109.76l127 64.3401c18 8.82996 22 -13.88 10 -21.4501l-51 -31.5399c-20.0615 -12.4 -21 -45.42 -21 -64.3401v-1023.15
c0 -93.358 -95 -137.513 -145 -155.175c-6.944 -2.4531 -13 -8.83198 -13 -15.1396s6.056 -12.6865 13 -15.1396c50 -17.6622 145 -61.8174 145 -155.175v-1023.15c0 -18.92 0.938499 -51.9401 21 -64.3401l51 -31.5399c12 -7.57007 8 -30.28 -10 -21.4501l-127 64.3401
c-38.256 19.38 -40 75.7 -40 109.76v1040.82c0 40.3711 -36 52.9873 -61 68.1269c-9.75101 5.9053 -18 12.6153 -18 27.7549z" />
    <glyph glyph-name="brace145" unicode="&#xe191;" 
d="M-256 0c0 15.2441 8.24899 22.001 18 27.9473c25 15.2441 61 27.9472 61 68.5976v1048.02c0 34.2999 1.744 91.0099 40 110.52l127 64.79c18 8.89001 22 -13.97 10 -21.6l-51 -31.75c-20.0615 -12.5 -21 -45.74 -21 -64.79v-1030.24
c0 -94.0038 -95 -138.466 -145 -156.25c-6.944 -2.4697 -13 -8.89254 -13 -15.2441s6.056 -12.7744 13 -15.2441c50 -17.7842 145 -62.2461 145 -156.25v-1030.24c0 -19.05 0.938499 -52.29 21 -64.79l51 -31.75c12 -7.63 8 -30.49 -10 -21.6l-127 64.79
c-38.256 19.51 -40 76.22 -40 110.52v1048.02c0 40.6504 -36 53.3535 -61 68.5976c-9.75101 5.9463 -18 12.7032 -18 27.9473z" />
    <glyph glyph-name="brace146" unicode="&#xe192;" 
d="M-256 0c0 15.3486 8.24899 22.1523 18 28.1396c25 15.3497 61 28.1397 61 69.0704v1055.24c0 34.54 1.744 91.63 40 111.28l127 65.24c18 8.95007 22 -14.0699 10 -21.75l-51 -31.97c-20.0615 -12.58 -21 -46.05 -21 -65.24v-1037.33
c0 -94.6516 -95 -139.42 -145 -157.327c-6.944 -2.4863 -13 -8.95309 -13 -15.3486s6.056 -12.8623 13 -15.3486c50 -17.9073 145 -62.6758 145 -157.327v-1037.33c0 -19.1899 0.938499 -52.66 21 -65.24l51 -31.97c12 -7.68005 8 -30.7001 -10 -21.75l-127 65.24
c-38.256 19.65 -40 76.74 -40 111.28v1055.24c0 40.9307 -36 53.7207 -61 69.0704c-9.75101 5.9873 -18 12.791 -18 28.1396z" />
    <glyph glyph-name="brace147" unicode="&#xe193;" 
d="M-256 0c0 15.4541 8.24899 22.3047 18 28.333c25 15.4541 61 28.333 61 69.5449v1062.49c0 34.77 1.744 92.26 40 112.04l127 65.6799c18 9.02002 22 -14.1599 10 -21.89l-51 -32.2c-20.0615 -12.66 -21 -46.36 -21 -65.6801v-1044.46
c0 -95.3024 -95 -140.378 -145 -158.408c-6.944 -2.5039 -13 -9.01465 -13 -15.4541s6.056 -12.9502 13 -15.4541c50 -18.0303 145 -63.1055 145 -158.408v-1044.46c0 -19.3201 0.938499 -53.02 21 -65.6801l51 -32.2c12 -7.7301 8 -30.91 -10 -21.89l-127 65.6799
c-38.256 19.78 -40 77.27 -40 112.04v1062.49c0 41.2119 -36 54.0908 -61 69.5449c-9.75101 6.0283 -18 12.8789 -18 28.333z" />
    <glyph glyph-name="brace148" unicode="&#xe194;" 
d="M-256 0c0 15.5605 8.24899 22.458 18 28.5273c25 15.5596 61 28.5264 61 70.0206v1069.76c0 35.0099 1.744 92.8899 40 112.81l127 66.13c18 9.07996 22 -14.26 10 -22.04l-51 -32.4199c-20.0615 -12.75 -21 -46.6801 -21 -66.13v-1051.61
c0 -95.9543 -95 -141.338 -145 -159.492c-6.944 -2.5214 -13 -9.0771 -13 -15.5605s6.056 -13.0391 13 -15.5605c50 -18.1534 145 -63.5372 145 -159.492v-1051.61c0 -19.45 0.938499 -53.38 21 -66.13l51 -32.4199c12 -7.78003 8 -31.12 -10 -22.04l-127 66.13
c-38.256 19.92 -40 77.8 -40 112.81v1069.76c0 41.4942 -36 54.461 -61 70.0206c-9.75101 6.0693 -18 12.9668 -18 28.5273z" />
    <glyph glyph-name="brace149" unicode="&#xe195;" 
d="M-256 0c0 15.666 8.24899 22.6104 18 28.7217c25 15.666 61 28.7207 61 70.498v1077.05c0 35.25 1.744 93.53 40 113.58l127 66.5801c18 9.13989 22 -14.3601 10 -22.1901l-51 -32.64c-20.0615 -12.84 -21 -47 -21 -66.58v-1058.78
c0 -96.6083 -95 -142.302 -145 -160.579c-6.944 -2.5381 -13 -9.13866 -13 -15.666s6.056 -13.1279 13 -15.666c50 -18.2774 145 -63.9707 145 -160.579v-1058.78c0 -19.58 0.938499 -53.74 21 -66.58l51 -32.64c12 -7.82996 8 -31.33 -10 -22.1901l-127 66.5801
c-38.256 20.0499 -40 78.33 -40 113.58v1077.05c0 41.7773 -36 54.832 -61 70.498c-9.75101 6.1113 -18 13.0557 -18 28.7217z" />
    <glyph glyph-name="brace150" unicode="&#xe196;" 
d="M-256 0c0 15.7725 8.24899 22.7646 18 28.916c25 15.7735 61 28.917 61 70.9776v1084.37c0 35.49 1.744 94.16 40 114.35l127 67.04c18 9.19995 22 -14.4601 10 -22.35l-51 -32.8601c-20.0615 -12.9199 -21 -47.3199 -21 -67.0299v-1065.97
c0 -97.2643 -95 -143.268 -145 -161.669c-6.944 -2.5557 -13 -9.20023 -13 -15.7725s6.056 -13.2168 13 -15.7725c50 -18.4013 145 -64.4052 145 -161.669v-1065.97c0 -19.71 0.938499 -54.11 21 -67.0299l51 -32.8601c12 -7.88989 8 -31.5499 -10 -22.35l-127 67.04
c-38.256 20.1899 -40 78.86 -40 114.35v1084.37c0 42.0606 -36 55.2041 -61 70.9776c-9.75101 6.1514 -18 13.1435 -18 28.916z" />
    <glyph glyph-name="brace151" unicode="&#xe197;" 
d="M-256 0c0 15.8789 8.24899 22.918 18 29.1123c25 15.8789 61 29.1123 61 71.4567v1091.71c0 35.72 1.744 94.7899 40 115.12l127 67.49c18 9.26001 22 -14.5601 10 -22.5l-51 -33.08c-20.0615 -13.01 -21 -47.64 -21 -67.4901v-1073.18
c0 -97.9233 -95 -144.238 -145 -162.764c-6.944 -2.5723 -13 -9.26269 -13 -15.8789s6.056 -13.3066 13 -15.8789c50 -18.5264 145 -64.8408 145 -162.764v-1073.18c0 -19.8501 0.938499 -54.4801 21 -67.4901l51 -33.08c12 -7.93994 8 -31.76 -10 -22.5l-127 67.49
c-38.256 20.3301 -40 79.4 -40 115.12v1091.71c0 42.3444 -36 55.5778 -61 71.4567c-9.75101 6.1943 -18 13.2334 -18 29.1123z" />
    </font>
</defs>
</svg>
